<svg width="365" height="134" viewBox="0 0 365 134" fill="none" xmlns="http://www.w3.org/2000/svg">
<g filter="url(#filter0_b_2330_117589)">
<path d="M0 67C0 30.5492 29.5492 1 66 1H148.176C154.706 1 160 6.29357 160 12.8235V121.176C160 127.706 154.706 133 148.176 133H66C29.5492 133 0 103.451 0 67Z" fill="#272727"/>
<g filter="url(#filter1_b_2330_117589)">
<circle cx="66.5734" cy="67.4272" r="53.7707" fill="#272727"/>
</g>
<g filter="url(#filter2_b_2330_117589)">
<path d="M123.027 66.8653C123.027 76.7197 120.434 86.4007 115.509 94.936L98.3375 85.0269C101.524 79.5046 103.202 73.2411 103.202 66.8653H123.027Z" fill="#991119" fill-opacity="0.8"/>
</g>
<g filter="url(#filter3_b_2330_117589)">
<path d="M66.8654 10.7036C76.7198 10.7036 86.4008 13.2965 94.9361 18.2219L77.8609 47.8113C74.5176 45.882 70.7254 44.8663 66.8654 44.8663L66.8654 10.7036Z" fill="#991119" fill-opacity="0.8"/>
</g>
<g filter="url(#filter4_b_2330_117589)">
<path d="M94.9465 18.2275C103.481 23.1548 110.568 30.2408 115.497 38.774L97.9476 48.9112C94.7973 43.4573 90.2675 38.9284 84.813 35.7793L94.9465 18.2275Z" fill="#991119" fill-opacity="0.8"/>
</g>
<g filter="url(#filter5_b_2330_117589)">
<path d="M115.503 38.7846C120.43 47.3188 123.025 56.9992 123.027 66.8537L95.1993 66.8595C95.1983 61.8879 93.8891 57.004 91.4033 52.6985L115.503 38.7846Z" fill="#991119" fill-opacity="0.8"/>
</g>
<g filter="url(#filter6_b_2330_117589)">
<path d="M94.9466 115.503C86.4124 120.43 76.7319 123.025 66.8775 123.027L66.876 116.06C75.5079 116.058 83.9874 113.785 91.4629 109.469L94.9466 115.503Z" fill="#991119" fill-opacity="0.8"/>
</g>
<g filter="url(#filter7_b_2330_117589)">
<path d="M115.503 94.9464C110.576 103.481 103.489 110.568 94.9563 115.497L88.427 104.193C94.9767 100.41 100.416 94.97 104.198 88.4194L115.503 94.9464Z" fill="#991119" fill-opacity="0.8"/>
</g>
<g filter="url(#filter8_b_2330_117589)">
<path d="M10.7038 66.8656C10.7038 76.7201 13.2967 86.4011 18.2222 94.9363L44.9138 79.5333C42.6911 75.6816 41.5209 71.3127 41.5209 66.8656H10.7038Z" fill="#991119" fill-opacity="0.8"/>
</g>
<g filter="url(#filter9_b_2330_117589)">
<path d="M66.8656 10.7039C57.0111 10.7039 47.3301 13.2969 38.7949 18.2223L52.9796 42.8028C57.2018 40.3663 61.9908 39.0837 66.8656 39.0837L66.8656 10.7039Z" fill="#991119" fill-opacity="0.8"/>
</g>
<g filter="url(#filter10_b_2330_117589)">
<path d="M38.7847 18.228C30.2505 23.1552 23.163 30.2412 18.234 38.7744L23.5908 41.8687C27.9769 34.2754 34.2837 27.9699 41.8778 23.5854L38.7847 18.228Z" fill="#991119" fill-opacity="0.8"/>
</g>
<g filter="url(#filter11_b_2330_117589)">
<path d="M18.2281 38.7846C13.3009 47.3188 10.7059 56.9992 10.7038 66.8537L12.0304 66.854C12.0324 57.2323 14.566 47.7805 19.3769 39.4479L18.2281 38.7846Z" fill="#991119" fill-opacity="0.8"/>
</g>
<g filter="url(#filter12_b_2330_117589)">
<path d="M38.7844 115.503C47.3186 120.431 56.999 123.026 66.8535 123.028L66.8567 107.707C59.6905 107.705 52.6509 105.818 46.4448 102.235L38.7844 115.503Z" fill="#991119" fill-opacity="0.8"/>
</g>
<g filter="url(#filter13_b_2330_117589)">
<path d="M18.2282 94.9467C23.1554 103.481 30.2415 110.568 38.7747 115.497L44.1755 106.147C37.283 102.166 31.5593 96.4412 27.5794 89.5478L18.2282 94.9467Z" fill="#991119" fill-opacity="0.8"/>
</g>
<g filter="url(#filter14_b_2330_117589)">
<circle cx="66.5732" cy="67.4267" r="35.6764" stroke="white" stroke-opacity="0.16" stroke-width="0.341401"/>
</g>
<g filter="url(#filter15_b_2330_117589)">
<circle cx="66.5735" cy="67.4267" r="17.7529" stroke="white" stroke-opacity="0.16" stroke-width="0.341401"/>
</g>
<path fill-rule="evenodd" clip-rule="evenodd" d="M66.5732 134C103.341 134 133.146 104.194 133.146 67.4268C133.146 30.6594 103.341 0.853516 66.5732 0.853516C29.8059 0.853516 0 30.6594 0 67.4268C0 104.194 29.8059 134 66.5732 134ZM66.5733 121.197C96.27 121.197 120.344 97.123 120.344 67.4263C120.344 37.7295 96.27 13.6556 66.5733 13.6556C36.8765 13.6556 12.8026 37.7295 12.8026 67.4263C12.8026 97.123 36.8765 121.197 66.5733 121.197Z" fill="#121212"/>
<path d="M63.7156 10.8535V3.68409H64.7398L68.3962 9.18406V3.68409L69.4204 3.68409V10.8535H68.3962L64.7398 5.35354V10.8535H63.7156Z" fill="white" fill-opacity="0.87"/>
<path d="M123.146 65.2493H130.316V69.7763H129.476V66.2736H127.182V69.4691H126.362V66.2736H123.986V69.7763H123.146V65.2493Z" fill="white" fill-opacity="0.87"/>
<path d="M66.6511 130.466C66.1322 130.466 65.6747 130.374 65.2787 130.19C64.8827 129.999 64.5754 129.732 64.3569 129.391C64.1384 129.05 64.0292 128.65 64.0292 128.193H65.1046C65.1046 128.452 65.166 128.691 65.2889 128.91C65.4118 129.121 65.5859 129.292 65.8113 129.422C66.0434 129.545 66.3234 129.606 66.6511 129.606C66.9447 129.606 67.1939 129.558 67.3988 129.463C67.6036 129.367 67.7607 129.237 67.8699 129.073C67.986 128.903 68.044 128.708 68.044 128.49C68.044 128.251 67.9894 128.053 67.8802 127.896C67.7709 127.732 67.6207 127.595 67.4295 127.486C67.2383 127.377 67.0198 127.281 66.774 127.199C66.5282 127.11 66.2619 127.022 65.9751 126.933C65.3811 126.742 64.9441 126.499 64.6642 126.206C64.3842 125.905 64.2442 125.52 64.2442 125.048C64.2442 124.646 64.3364 124.297 64.5208 124.004C64.712 123.703 64.9817 123.471 65.3299 123.307C65.6781 123.137 66.0878 123.051 66.5589 123.051C67.0232 123.051 67.4261 123.137 67.7675 123.307C68.1157 123.478 68.3889 123.713 68.5869 124.014C68.7849 124.314 68.8873 124.666 68.8941 125.069H67.8085C67.8085 124.884 67.7607 124.704 67.6651 124.526C67.5695 124.348 67.4261 124.205 67.2349 124.096C67.0437 123.98 66.8082 123.922 66.5282 123.922C66.2961 123.915 66.0878 123.952 65.9034 124.034C65.7191 124.116 65.5723 124.236 65.463 124.393C65.3606 124.55 65.3094 124.738 65.3094 124.956C65.3094 125.175 65.3572 125.352 65.4528 125.489C65.5484 125.619 65.685 125.731 65.8625 125.827C66.04 125.922 66.2449 126.011 66.477 126.093C66.716 126.168 66.9789 126.254 67.2656 126.349C67.6139 126.465 67.928 126.609 68.2079 126.779C68.4879 126.943 68.7064 127.158 68.8634 127.425C69.0273 127.684 69.1092 128.019 69.1092 128.428C69.1092 128.783 69.017 129.114 68.8327 129.422C68.6483 129.729 68.3752 129.982 68.0133 130.18C67.6514 130.371 67.1974 130.466 66.6511 130.466Z" fill="white" fill-opacity="0.87"/>
<path d="M10 70.2555L2.83057 72.1912V71.0953L8.80168 69.6409L2.83057 67.9817V66.8449L8.82217 65.2164L2.83057 63.7518L2.83057 62.6456L10 64.6326V65.8207L4.29518 67.4287L10 69.0776L10 70.2555Z" fill="white" fill-opacity="0.87"/>
<path d="M41.7139 117.426L41.4601 117.909L38.6031 118.941C38.268 119.062 37.9865 119.172 37.7585 119.271C37.5296 119.372 37.3421 119.481 37.1961 119.599C37.0472 119.717 36.9287 119.86 36.8403 120.028C36.7388 120.221 36.6974 120.413 36.7162 120.603C36.7331 120.792 36.801 120.967 36.9197 121.128C37.0385 121.288 37.1972 121.421 37.3957 121.525C37.6068 121.636 37.814 121.689 38.0175 121.684C38.2182 121.68 38.4024 121.623 38.57 121.512C38.7359 121.401 38.8738 121.241 38.9838 121.031L39.617 121.364C39.4478 121.686 39.225 121.93 38.9487 122.095C38.6724 122.26 38.3707 122.343 38.0435 122.345C37.7144 122.346 37.3899 122.262 37.0697 122.093C36.7477 121.924 36.4982 121.706 36.321 121.44C36.1438 121.173 36.0452 120.887 36.0251 120.582C36.0051 120.277 36.0693 119.984 36.2179 119.701C36.3241 119.499 36.4646 119.32 36.6395 119.166C36.8116 119.012 37.0491 118.864 37.3521 118.722C37.6523 118.581 38.0486 118.424 38.5411 118.251L40.469 117.58L40.4915 117.537L37.9373 116.195L38.2475 115.604L41.7139 117.426ZM32.3201 119.501L35.2077 114.007L35.8731 114.356L33.352 119.154L33.3842 119.171L35.1938 118.985L34.8385 119.661L32.9854 119.851L32.3201 119.501Z" fill="white" fill-opacity="0.6"/>
<path d="M19.9786 98.6435L19.5174 98.9349L16.527 98.4003C16.1765 98.3372 15.8777 98.2918 15.6306 98.2638C15.3818 98.2369 15.1648 98.2377 14.9797 98.2662C14.7918 98.2941 14.6175 98.3588 14.4569 98.4602C14.2724 98.5767 14.1407 98.722 14.0619 98.8961C13.9819 99.0685 13.9533 99.2539 13.9758 99.4523C13.9984 99.6508 14.0696 99.8448 14.1894 100.034C14.3167 100.236 14.4697 100.386 14.6483 100.483C14.8242 100.58 15.0124 100.622 15.2128 100.61C15.4121 100.597 15.6117 100.527 15.8116 100.401L16.1936 101.005C15.8861 101.2 15.5714 101.299 15.2495 101.304C14.9276 101.309 14.6246 101.231 14.3404 101.068C14.0552 100.904 13.816 100.669 13.6229 100.364C13.4287 100.056 13.3215 99.7425 13.3013 99.4231C13.2812 99.1036 13.3387 98.8068 13.4738 98.5326C13.609 98.2585 13.8115 98.0362 14.0814 97.8657C14.2745 97.7437 14.4854 97.6595 14.7141 97.613C14.9401 97.5659 15.2197 97.5566 15.5531 97.585C15.8838 97.6128 16.3055 97.675 16.8183 97.7718L18.8236 98.1542L18.8646 98.1283L17.3237 95.6888L17.8875 95.3327L19.9786 98.6435ZM16.2917 95.1899L15.7689 95.5201L10.6631 95.5185L10.4236 95.1393L11.2334 94.6278L11.3952 94.8841L15.2531 94.8851L15.2941 94.8592L13.3325 91.7534L13.8963 91.3973L16.2917 95.1899ZM15.8077 92.0398L14.5725 92.8199L14.3291 92.9737L10.5596 95.3545L10.1776 94.7498L15.4257 91.435L15.8077 92.0398Z" fill="white" fill-opacity="0.6"/>
<path d="M16.7821 41.1017C16.5959 41.4559 16.3692 41.7396 16.1019 41.9529C15.8355 42.1645 15.5513 42.2947 15.2494 42.3438C14.9465 42.3901 14.6474 42.3447 14.3519 42.2077L14.7072 41.5316C14.8918 41.6103 15.0767 41.6299 15.2619 41.5902C15.4453 41.5496 15.6174 41.4609 15.7784 41.3241C15.9393 41.1873 16.0752 41.0133 16.1862 40.8022C16.3102 40.5661 16.3791 40.3353 16.3927 40.1096C16.4063 39.8839 16.367 39.6806 16.2749 39.4998C16.1827 39.319 16.0401 39.1778 15.8469 39.0763C15.6448 38.9701 15.4405 38.9266 15.234 38.946C15.0258 38.9644 14.827 39.0471 14.6379 39.1942C14.4487 39.3413 14.2808 39.5544 14.1342 39.8334L13.9029 40.2734L13.3127 39.9632L13.5439 39.5232C13.6586 39.305 13.7198 39.093 13.7276 38.887C13.7363 38.6793 13.6936 38.4914 13.5994 38.3232C13.5061 38.1532 13.3629 38.0174 13.1697 37.9159C12.9837 37.8181 12.8002 37.7742 12.6192 37.7841C12.4383 37.794 12.2698 37.8539 12.114 37.9637C11.959 38.0717 11.8285 38.2268 11.7223 38.4289C11.6226 38.6185 11.5635 38.8157 11.5449 39.0205C11.5254 39.2226 11.5533 39.4107 11.6284 39.5848C11.7017 39.758 11.8272 39.8971 12.005 40.0019L11.6666 40.6458C11.3842 40.4837 11.1776 40.2644 11.0468 39.9879C10.9141 39.7105 10.856 39.4083 10.8726 39.0815C10.8901 38.7528 10.982 38.4302 11.1484 38.1136C11.327 37.7738 11.549 37.5184 11.8146 37.3476C12.0784 37.1757 12.3564 37.0833 12.6486 37.0702C12.9408 37.0572 13.2166 37.1188 13.4759 37.2551C13.7853 37.4177 14.0064 37.6377 14.1391 37.9152C14.2727 38.1908 14.3087 38.4894 14.2471 38.8108L14.29 38.8333C14.5296 38.5164 14.8195 38.323 15.1599 38.253C15.4985 38.1822 15.8421 38.2384 16.1909 38.4217C16.4896 38.5786 16.7151 38.801 16.8675 39.0888C17.019 39.3739 17.0894 39.6916 17.0787 40.0421C17.068 40.3926 16.9691 40.7458 16.7821 41.1017ZM19.2763 36.3555C19.0639 36.7598 18.7729 37.0463 18.4035 37.2151C18.0322 37.3829 17.597 37.4315 17.0977 37.3608C16.5966 37.2892 16.0473 37.0965 15.4499 36.7825C14.8561 36.4704 14.3885 36.1288 14.0471 35.7577C13.7049 35.3838 13.4976 34.9964 13.4253 34.5954C13.3521 34.1918 13.4208 33.7896 13.6314 33.3889C13.8419 32.9883 14.1337 32.7045 14.5068 32.5376C14.8789 32.368 15.3156 32.319 15.8167 32.3905C16.3169 32.4594 16.8639 32.6499 17.4578 32.962C18.0552 33.2759 18.5254 33.6189 18.8686 33.991C19.21 34.3622 19.4168 34.7482 19.4892 35.1492C19.5597 35.5492 19.4888 35.9513 19.2763 36.3555ZM18.6861 36.0453C18.8966 35.6447 18.867 35.2319 18.5972 34.8071C18.3274 34.3823 17.8348 33.9819 17.1194 33.6059C16.6436 33.3558 16.2117 33.1939 15.8236 33.1201C15.4365 33.0445 15.1055 33.0554 14.8305 33.1529C14.5565 33.2486 14.35 33.4288 14.2109 33.6935C14.0022 34.0906 14.035 34.5038 14.3092 34.9333C14.5816 35.3618 15.0747 35.7635 15.7883 36.1386C16.2641 36.3886 16.6947 36.551 17.08 36.6257C17.4653 36.7003 17.7941 36.6894 18.0663 36.5927C18.3394 36.4943 18.546 36.3119 18.6861 36.0453Z" fill="white" fill-opacity="0.6"/>
<path d="M35.7798 20.2477C35.4415 20.4614 35.1033 20.5938 34.7652 20.6448C34.4287 20.6948 34.1175 20.6656 33.8314 20.557C33.546 20.4457 33.3096 20.2569 33.1223 19.9905L33.768 19.5826C33.8885 19.7431 34.0389 19.8525 34.219 19.9107C34.3982 19.9673 34.5916 19.9765 34.7994 19.9385C35.0072 19.9005 35.2119 19.8178 35.4135 19.6905C35.639 19.548 35.814 19.3825 35.9387 19.1938C36.0633 19.0052 36.1309 18.8095 36.1415 18.6069C36.1521 18.4042 36.0992 18.2106 35.9826 18.0261C35.8607 17.8331 35.7055 17.6933 35.517 17.6068C35.3275 17.5186 35.114 17.4909 34.8766 17.5237C34.6393 17.5565 34.3873 17.6571 34.1208 17.8254L33.7006 18.0909L33.3445 17.5271L33.7647 17.2617C33.9732 17.13 34.1322 16.977 34.2419 16.8026C34.3533 16.627 34.4103 16.4429 34.4128 16.2501C34.417 16.0563 34.3609 15.8671 34.2443 15.6826C34.1321 15.5049 33.9952 15.3751 33.8335 15.2932C33.6718 15.2113 33.496 15.1789 33.3061 15.1961C33.1179 15.2122 32.9273 15.2812 32.7343 15.4031C32.5532 15.5175 32.4034 15.6587 32.2849 15.8268C32.167 15.9921 32.0971 16.1689 32.075 16.3572C32.0519 16.5439 32.0911 16.7271 32.1927 16.9067L31.5776 17.2952C31.4142 17.0136 31.3449 16.7204 31.3698 16.4155C31.3936 16.1089 31.4944 15.8182 31.6722 15.5434C31.8516 15.2676 32.0925 15.0341 32.3949 14.8432C32.7195 14.6381 33.0395 14.528 33.3549 14.5128C33.6693 14.4959 33.9563 14.5549 34.2159 14.6896C34.4754 14.8244 34.6835 15.0157 34.8399 15.2634C35.0266 15.5589 35.108 15.86 35.0842 16.1666C35.0621 16.4722 34.944 16.7487 34.7299 16.9962L34.7558 17.0372C35.1217 16.8826 35.4696 16.86 35.7993 16.9696C36.1279 17.0775 36.3975 17.298 36.6079 17.6312C36.7881 17.9165 36.8722 18.2218 36.8602 18.5472C36.8489 18.8699 36.751 19.1802 36.5665 19.4784C36.382 19.7766 36.1198 20.033 35.7798 20.2477ZM40.3745 17.3457C40.0362 17.5594 39.698 17.6917 39.3598 17.7428C39.0234 17.7928 38.7121 17.7635 38.4261 17.655C38.1407 17.5437 37.9043 17.3549 37.7169 17.0884L38.3627 16.6806C38.4832 16.8411 38.6335 16.9504 38.8137 17.0087C38.9928 17.0653 39.1863 17.0745 39.3941 17.0365C39.6019 16.9984 39.8066 16.9158 40.0082 16.7884C40.2337 16.646 40.4087 16.4805 40.5334 16.2918C40.658 16.1032 40.7256 15.9075 40.7362 15.7048C40.7468 15.5022 40.6938 15.3086 40.5773 15.1241C40.4554 14.931 40.3002 14.7913 40.1117 14.7048C39.9222 14.6166 39.7087 14.5889 39.4713 14.6217C39.234 14.6545 38.982 14.7551 38.7155 14.9234L38.2952 15.1889L37.9392 14.6251L38.3594 14.3597C38.5679 14.228 38.7269 14.075 38.8366 13.9005C38.948 13.725 39.005 13.5409 39.0075 13.3481C39.0117 13.1542 38.9555 12.9651 38.839 12.7806C38.7268 12.6029 38.5899 12.4731 38.4282 12.3912C38.2665 12.3093 38.0907 12.2769 37.9008 12.2941C37.7126 12.3102 37.522 12.3792 37.329 12.5011C37.1479 12.6155 36.9981 12.7567 36.8796 12.9248C36.7617 13.09 36.6917 13.2669 36.6697 13.4552C36.6466 13.6419 36.6858 13.8251 36.7873 14.0047L36.1723 14.3931C36.0088 14.1116 35.9396 13.8184 35.9645 13.5135C35.9883 13.2069 36.0891 12.9162 36.2668 12.6414C36.4463 12.3655 36.6872 12.1321 36.9896 11.9411C37.3142 11.7361 37.6342 11.626 37.9496 11.6108C38.264 11.5939 38.5509 11.6528 38.8105 11.7876C39.0701 11.9224 39.2781 12.1136 39.4346 12.3614C39.6213 12.6569 39.7027 12.958 39.6789 13.2646C39.6568 13.5701 39.5387 13.8467 39.3246 14.0942L39.3505 14.1352C39.7164 13.9806 40.0643 13.958 40.394 14.0676C40.7226 14.1755 40.9922 14.396 41.2026 14.7292C41.3828 15.0145 41.4669 15.3198 41.4549 15.6452C41.4436 15.9678 41.3457 16.2782 41.1612 16.5764C40.9767 16.8746 40.7145 17.131 40.3745 17.3457Z" fill="white" fill-opacity="0.6"/>
<path d="M94.2275 18.679C93.8733 18.4929 93.5896 18.2662 93.3763 17.9988C93.1647 17.7325 93.0345 17.4483 92.9854 17.1463C92.9391 16.8435 92.9845 16.5443 93.1215 16.2489L93.7976 16.6042C93.7189 16.7888 93.6993 16.9737 93.739 17.1588C93.7796 17.3422 93.8683 17.5144 94.0051 17.6753C94.1419 17.8363 94.3159 17.9722 94.527 18.0831C94.7631 18.2072 94.9939 18.276 95.2196 18.2896C95.4453 18.3032 95.6486 18.264 95.8294 18.1718C96.0102 18.0797 96.1514 17.937 96.2529 17.7438C96.3591 17.5417 96.4026 17.3374 96.3832 17.131C96.3648 16.9227 96.2821 16.724 96.135 16.5348C95.9879 16.3457 95.7748 16.1778 95.4958 16.0311L95.0558 15.7999L95.366 15.2096L95.806 15.4409C96.0242 15.5556 96.2362 15.6168 96.4422 15.6246C96.6499 15.6333 96.8378 15.5905 97.006 15.4963C97.176 15.4031 97.3118 15.2598 97.4133 15.0667C97.5111 14.8806 97.555 14.6971 97.5451 14.5162C97.5352 14.3352 97.4753 14.1668 97.3655 14.0109C97.2575 13.856 97.1024 13.7254 96.9003 13.6192C96.7107 13.5196 96.5135 13.4604 96.3087 13.4418C96.1066 13.4224 95.9185 13.4502 95.7444 13.5253C95.5712 13.5987 95.4321 13.7242 95.3273 13.9019L94.6834 13.5635C94.8455 13.2812 95.0648 13.0746 95.3413 12.9437C95.6187 12.811 95.9209 12.753 96.2477 12.7695C96.5764 12.787 96.899 12.8789 97.2156 13.0453C97.5554 13.2239 97.8108 13.446 97.9816 13.7116C98.1535 13.9753 98.2459 14.2533 98.259 14.5455C98.2721 14.8377 98.2104 15.1135 98.0741 15.3729C97.9115 15.6823 97.6915 15.9034 97.414 16.036C97.1384 16.1696 96.8398 16.2056 96.5184 16.144L96.4959 16.1869C96.8128 16.4265 97.0062 16.7165 97.0762 17.0568C97.147 17.3954 97.0908 17.7391 96.9075 18.0879C96.7506 18.3866 96.5282 18.6121 96.2404 18.7644C95.9553 18.916 95.6376 18.9864 95.2871 18.9756C94.9366 18.9649 94.5834 18.8661 94.2275 18.679Z" fill="white" fill-opacity="0.6"/>
<path d="M114.696 39.172C114.564 38.9545 114.469 38.7134 114.411 38.4485C114.354 38.1836 114.362 37.9035 114.436 37.6082C114.512 37.3119 114.675 37.009 114.927 36.6996C115.18 36.3891 115.549 36.0806 116.034 35.7742C116.499 35.4807 116.938 35.2642 117.352 35.1248C117.768 34.9842 118.151 34.9191 118.501 34.9294C118.854 34.9387 119.168 35.0199 119.444 35.173C119.721 35.3278 119.953 35.553 120.14 35.8486C120.325 36.1424 120.431 36.441 120.458 36.7444C120.487 37.0484 120.444 37.3388 120.327 37.6157C120.21 37.8925 120.03 38.1381 119.785 38.3524L119.39 37.7271C119.589 37.5201 119.714 37.2838 119.763 37.0182C119.813 36.7526 119.751 36.4814 119.576 36.2047C119.319 35.7981 118.94 35.5894 118.438 35.5787C117.938 35.5697 117.368 35.7662 116.728 36.168L116.754 36.209C116.959 36.213 117.155 36.2484 117.34 36.3152C117.529 36.3826 117.702 36.4788 117.86 36.6038C118.018 36.7288 118.153 36.8809 118.266 37.0603C118.456 37.361 118.555 37.6835 118.562 38.0279C118.571 38.3712 118.491 38.7011 118.323 39.0176C118.157 39.333 117.904 39.5976 117.566 39.8112C117.242 40.0162 116.898 40.1314 116.537 40.1566C116.177 40.1808 115.834 40.1116 115.509 39.9488C115.187 39.7867 114.916 39.5278 114.696 39.172ZM115.26 38.8159C115.396 39.0311 115.572 39.1902 115.787 39.2931C116.004 39.3976 116.234 39.4423 116.477 39.427C116.722 39.4134 116.956 39.3365 117.178 39.1962C117.395 39.0592 117.561 38.8858 117.677 38.6762C117.796 38.4673 117.855 38.2448 117.855 38.0088C117.855 37.7744 117.787 37.5496 117.651 37.3344C117.548 37.1721 117.42 37.0414 117.267 36.9423C117.115 36.8422 116.95 36.7742 116.773 36.7384C116.596 36.7043 116.417 36.7027 116.235 36.7336C116.056 36.7633 115.887 36.8278 115.73 36.9271C115.522 37.0587 115.358 37.2304 115.238 37.4422C115.12 37.6557 115.059 37.8829 115.056 38.1239C115.054 38.3665 115.122 38.5972 115.26 38.8159Z" fill="white" fill-opacity="0.6"/>
<path d="M121.05 96.4438L115.556 93.5562L115.905 92.8908L120.703 95.4119L120.719 95.3797L120.534 93.5701L121.21 93.9254L121.4 95.7785L121.05 96.4438ZM114.725 95.1365L115.208 95.3903L116.24 98.2473C116.361 98.5824 116.471 98.8639 116.57 99.0919C116.672 99.3208 116.781 99.5083 116.898 99.6543C117.016 99.8031 117.159 99.9217 117.327 100.01C117.52 100.112 117.712 100.153 117.902 100.134C118.092 100.117 118.266 100.049 118.427 99.9306C118.588 99.8119 118.72 99.6532 118.824 99.4547C118.935 99.2436 118.988 99.0364 118.983 98.8329C118.979 98.6322 118.922 98.448 118.812 98.2803C118.7 98.1145 118.54 97.9766 118.331 97.8666L118.663 97.2334C118.985 97.4026 119.229 97.6254 119.394 97.9017C119.559 98.178 119.643 98.4797 119.644 98.8069C119.645 99.1359 119.561 99.4605 119.393 99.7807C119.223 100.103 119.006 100.352 118.739 100.529C118.472 100.707 118.187 100.805 117.882 100.825C117.577 100.845 117.283 100.781 117 100.633C116.798 100.526 116.62 100.386 116.465 100.211C116.311 100.039 116.163 99.8013 116.021 99.4983C115.88 99.1981 115.723 98.8018 115.55 98.3093L114.879 96.3814L114.836 96.3589L113.494 98.9131L112.904 98.6029L114.725 95.1365Z" fill="white" fill-opacity="0.6"/>
<path d="M99.0448 119.91L95.7301 114.662L96.3656 114.26L99.2595 118.842L99.2903 118.823L100.034 117.163L100.442 117.809L99.6803 119.508L99.0448 119.91ZM92.5353 116.579C92.836 116.389 93.1446 116.278 93.461 116.245C93.7774 116.213 94.074 116.255 94.3509 116.372C94.6277 116.488 94.8572 116.676 95.0391 116.934L94.4241 117.322C94.2502 117.1 94.0185 116.971 93.729 116.937C93.4388 116.905 93.1596 116.974 92.8914 117.143C92.6762 117.279 92.5167 117.45 92.4129 117.657C92.3074 117.864 92.2624 118.086 92.2779 118.323C92.2927 118.562 92.3708 118.793 92.5122 119.017C92.6568 119.246 92.8361 119.418 93.0502 119.534C93.2637 119.653 93.4904 119.709 93.7305 119.703C93.9706 119.697 94.2031 119.624 94.4279 119.485C94.5896 119.385 94.7388 119.256 94.8756 119.098C95.0134 118.942 95.1122 118.79 95.1719 118.642L95.8117 118.338L97.1254 121.122L94.3989 122.844L94.0428 122.281L96.2364 120.895L95.4433 119.231L95.4125 119.25C95.3588 119.404 95.2687 119.56 95.142 119.719C95.0153 119.877 94.864 120.012 94.688 120.124C94.3668 120.326 94.0321 120.43 93.6839 120.435C93.335 120.443 93.0052 120.36 92.6944 120.185C92.382 120.012 92.1184 119.756 91.9036 119.416C91.6922 119.081 91.5785 118.735 91.5627 118.377C91.5462 118.021 91.6207 117.685 91.786 117.368C91.9524 117.052 92.2022 116.79 92.5353 116.579Z" fill="white" fill-opacity="0.6"/>
<path d="M122.574 98.6766L124.708 99.9569" stroke="white" stroke-opacity="0.2" stroke-width="0.682803"/>
<path d="M99.2798 122.595L100.56 124.729" stroke="white" stroke-opacity="0.2" stroke-width="0.682803"/>
<path d="M33.8101 122.575L32.5298 124.709" stroke="white" stroke-opacity="0.2" stroke-width="0.682803"/>
<path d="M10.3545 98.4399L8.20477 99.6932" stroke="white" stroke-opacity="0.2" stroke-width="0.682803"/>
<path d="M33.9771 12.1881L32.7147 10.0438" stroke="white" stroke-opacity="0.2" stroke-width="0.682803"/>
<path d="M98.2495 11.6185L99.4968 9.46536" stroke="white" stroke-opacity="0.2" stroke-width="0.682803"/>
<path d="M121.797 34.824L123.949 33.5742" stroke="white" stroke-opacity="0.2" stroke-width="0.682803"/>
<path d="M9.05859 33.8101L11.1924 35.0903" stroke="white" stroke-opacity="0.2" stroke-width="0.682803"/>
<path d="M80.0116 1.4643C80.1892 1.25242 80.5318 1.32845 80.6031 1.59555L82.7698 9.71275C82.8358 9.95973 82.6169 10.1889 82.3671 10.1343L78.8237 9.36029L74.8016 8.45534C74.5522 8.39921 74.4507 8.09891 74.6149 7.90296L80.0116 1.4643Z" fill="#00B3A6"/>
<g opacity="0.01">
<path d="M107.375 102.665C105.603 104.717 103.679 106.633 101.618 108.395L66.5731 67.4268L107.375 102.665Z" fill="#121212"/>
<path d="M31.3346 108.229C29.2827 106.457 27.3674 104.532 25.605 102.472L66.5731 67.4268L31.3346 108.229Z" fill="#121212"/>
<path d="M25.7713 32.1882C27.5434 30.1363 29.4678 28.221 31.528 26.4586L66.5731 67.4268L25.7713 32.1882Z" fill="#121212"/>
<path d="M101.812 26.6249C103.864 28.397 105.779 30.3214 107.541 32.3816L66.5731 67.4268L101.812 26.6249Z" fill="#121212"/>
</g>
<g filter="url(#filter16_d_2330_117589)">
<path d="M65.8097 59.565C66.1243 58.9359 67.022 58.9359 67.3365 59.565L74.267 73.4259C74.5949 74.0818 73.9977 74.8186 73.2881 74.6335L66.7886 72.9379C66.6473 72.9011 66.4989 72.9011 66.3577 72.9379L59.8581 74.6335C59.1486 74.8186 58.5513 74.0818 58.8793 73.4259L65.8097 59.565Z" fill="#0080FF"/>
</g>
<rect x="8.53516" y="74.2548" width="11.949" height="11.949" rx="5.97452" fill="#494949"/>
<rect x="8.70586" y="74.4255" width="11.6076" height="11.6076" rx="5.80382" stroke="white" stroke-opacity="0.2" stroke-width="0.341401"/>
<path d="M15.9809 83.2292V77.2547H16.8344V83.2292H15.9809ZM12.1828 83.2292V77.2547H13.0363V83.2292H12.1828ZM12.8912 80.5322V79.8323H16.1687V80.5322H12.8912Z" fill="white" fill-opacity="0.87"/>
<rect x="144.97" y="17.7366" width="3.94108" height="98.5269" rx="1.97054" fill="white" fill-opacity="0.2"/>
<g opacity="0.01">
<rect x="144.97" y="67.9855" width="3.94108" height="5.41898" fill="#F79009"/>
<rect x="144.97" y="73.4045" width="3.94108" height="5.41898" fill="#DF362A"/>
</g>
<g clip-path="url(#clip0_2330_117589)">
<rect width="11.8232" height="3.94108" transform="translate(141.028 78.8235)" fill="#DF362A"/>
<rect width="11.8232" height="3.94108" transform="translate(141.028 78.8235)" fill="#DF362A"/>
<rect opacity="0.01" x="139.058" y="85.8438" width="11.8232" height="1.4779" transform="rotate(-66.8304 139.058 85.8438)" fill="#3D3D3D"/>
<rect opacity="0.01" x="142.29" y="85.7533" width="11.8232" height="1.4779" transform="rotate(-66.8304 142.29 85.7533)" fill="#3D3D3D"/>
<rect opacity="0.01" x="145.246" y="85.7533" width="11.8232" height="1.4779" transform="rotate(-66.8304 145.246 85.7533)" fill="#3D3D3D"/>
<rect opacity="0.01" x="148.201" y="85.7533" width="11.8232" height="1.4779" transform="rotate(-66.8304 148.201 85.7533)" fill="#3D3D3D"/>
</g>
<rect x="141.029" y="65.0298" width="11.8232" height="2.95588" fill="#E5E7EA"/>
<g opacity="0.01">
<rect x="148.911" y="65.0298" width="3.94108" height="1.47794" transform="rotate(180 148.911 65.0298)" fill="#DF372A"/>
<rect x="148.911" y="63.5519" width="3.94108" height="1.47794" transform="rotate(180 148.911 63.5519)" fill="#DF362A"/>
</g>
<g clip-path="url(#clip1_2330_117589)">
<rect width="11.8232" height="3.94108" transform="translate(152.852 62.0739) rotate(180)" fill="#DF362A"/>
<rect opacity="0.01" x="154.822" y="55.0547" width="11.8232" height="1.4779" transform="rotate(113.17 154.822 55.0547)" fill="#F79009"/>
<rect opacity="0.01" x="151.59" y="55.145" width="11.8232" height="1.4779" transform="rotate(113.17 151.59 55.145)" fill="#F79009"/>
<rect opacity="0.01" x="148.634" y="55.1432" width="11.8232" height="1.4779" transform="rotate(113.17 148.634 55.1432)" fill="#F79009"/>
<rect opacity="0.01" x="145.678" y="55.145" width="11.8232" height="1.4779" transform="rotate(113.17 145.678 55.145)" fill="#F79009"/>
</g>
<path opacity="0.01" d="M137.582 127.235V122.608L136.439 122.987V122.34L137.873 121.718H138.386V127.235H137.582ZM139.488 127.235V126.668C139.861 126.384 140.219 126.098 140.56 125.809C140.902 125.52 141.204 125.233 141.467 124.949C141.735 124.66 141.942 124.379 142.089 124.106C142.242 123.828 142.318 123.562 142.318 123.31C142.318 123.131 142.284 122.966 142.215 122.813C142.152 122.661 142.047 122.537 141.9 122.443C141.758 122.343 141.567 122.293 141.325 122.293C141.094 122.293 140.899 122.343 140.741 122.443C140.589 122.543 140.473 122.677 140.395 122.845C140.316 123.008 140.276 123.189 140.276 123.389H139.52C139.525 123.01 139.606 122.69 139.764 122.427C139.922 122.164 140.137 121.965 140.41 121.828C140.689 121.691 140.999 121.623 141.341 121.623C141.698 121.623 142.008 121.689 142.271 121.82C142.533 121.946 142.738 122.133 142.885 122.38C143.033 122.627 143.106 122.924 143.106 123.271C143.106 123.523 143.054 123.775 142.949 124.027C142.849 124.274 142.709 124.516 142.531 124.752C142.357 124.989 142.163 125.217 141.947 125.438C141.732 125.654 141.509 125.859 141.277 126.053C141.052 126.247 140.833 126.423 140.623 126.581H143.28V127.235H139.488ZM146.28 127.235V123.089H146.989L147.036 123.641C147.162 123.441 147.33 123.284 147.541 123.168C147.756 123.052 147.985 122.995 148.226 122.995C148.426 122.995 148.605 123.021 148.762 123.073C148.92 123.126 149.059 123.207 149.18 123.318C149.301 123.428 149.398 123.562 149.472 123.72C149.608 123.483 149.792 123.305 150.024 123.184C150.26 123.058 150.51 122.995 150.772 122.995C151.088 122.995 151.353 123.055 151.569 123.176C151.789 123.297 151.957 123.481 152.073 123.728C152.189 123.969 152.246 124.266 152.246 124.618V127.235H151.466V124.697C151.466 124.356 151.39 124.098 151.238 123.925C151.09 123.751 150.883 123.665 150.615 123.665C150.436 123.665 150.273 123.712 150.126 123.807C149.984 123.896 149.871 124.03 149.787 124.209C149.703 124.387 149.661 124.603 149.661 124.855V127.235H148.873V124.697C148.873 124.356 148.797 124.098 148.644 123.925C148.492 123.751 148.284 123.665 148.022 123.665C147.848 123.665 147.69 123.712 147.549 123.807C147.407 123.896 147.291 124.03 147.202 124.209C147.112 124.387 147.068 124.603 147.068 124.855V127.235H146.28Z" fill="white" fill-opacity="0.6"/>
<path opacity="0.01" d="M141.507 15.8971V14.7699H138.741V14.1551L141.389 10.3794H142.296V14.0842H143.084V14.7699H142.296V15.8971H141.507ZM139.6 14.0842H141.555V11.2465L139.6 14.0842ZM145.974 15.8971V11.751H146.684L146.731 12.3027C146.857 12.1031 147.025 11.9454 147.235 11.8298C147.451 11.7142 147.679 11.6564 147.921 11.6564C148.121 11.6564 148.299 11.6827 148.457 11.7352C148.615 11.7878 148.754 11.8692 148.875 11.9796C148.996 12.0899 149.093 12.2239 149.167 12.3816C149.303 12.1451 149.487 11.9664 149.718 11.8456C149.955 11.7194 150.204 11.6564 150.467 11.6564C150.782 11.6564 151.048 11.7168 151.263 11.8377C151.484 11.9585 151.652 12.1425 151.768 12.3894C151.883 12.6312 151.941 12.9281 151.941 13.2802V15.8971H151.161V13.359C151.161 13.0174 151.085 12.7599 150.932 12.5865C150.785 12.4131 150.577 12.3264 150.309 12.3264C150.131 12.3264 149.968 12.3737 149.821 12.4683C149.679 12.5576 149.566 12.6916 149.482 12.8703C149.398 13.0489 149.356 13.2644 149.356 13.5166V15.8971H148.567V13.359C148.567 13.0174 148.491 12.7599 148.339 12.5865C148.187 12.4131 147.979 12.3264 147.716 12.3264C147.543 12.3264 147.385 12.3737 147.243 12.4683C147.101 12.5576 146.986 12.6916 146.896 12.8703C146.807 13.0489 146.762 13.2644 146.762 13.5166V15.8971H145.974Z" fill="white" fill-opacity="0.6"/>
</g>
<rect x="168" y="1" width="196.579" height="132" rx="12" fill="#272727"/>
<rect x="176" y="9" width="129.579" height="81.2632" rx="8" fill="#363636"/>
<path d="M194.112 33.6017C194.048 33.6017 193.985 33.6162 193.928 33.6442C193.871 33.6722 193.821 33.7129 193.782 33.7632C193.742 33.8136 193.715 33.8722 193.702 33.9347C193.688 33.9972 193.689 34.0619 193.705 34.124C194.011 35.3842 194.66 36.5343 195.578 37.4465C196.497 38.3586 197.649 38.9972 198.907 39.2911C200.164 39.5851 201.479 39.523 202.704 39.1116C203.929 38.7003 205.016 37.9559 205.845 36.9611C206.674 35.9663 207.212 34.7601 207.4 33.4766C207.587 32.193 207.417 30.8823 206.907 29.6902C206.398 28.498 205.569 27.4711 204.514 26.7236C203.458 25.976 202.217 25.537 200.928 25.4555C200.822 25.4488 200.722 25.4018 200.649 25.3239C200.577 25.2461 200.536 25.1433 200.536 25.0364V23.8947C200.536 23.8138 200.513 23.7346 200.469 23.6666C200.425 23.5986 200.363 23.5446 200.29 23.5112C200.217 23.4778 200.135 23.4663 200.056 23.4782C199.976 23.49 199.901 23.5247 199.841 23.578L196.171 26.806C196.126 26.8455 196.09 26.8942 196.066 26.9488C196.041 27.0034 196.028 27.0627 196.028 27.1226C196.028 27.1825 196.041 27.2418 196.066 27.2964C196.09 27.351 196.126 27.3997 196.171 27.4393L199.841 30.6664C199.901 30.7198 199.976 30.7544 200.056 30.7663C200.135 30.7781 200.217 30.7667 200.29 30.7333C200.363 30.6998 200.425 30.6459 200.469 30.5779C200.513 30.5099 200.536 30.4307 200.536 30.3498V29.0509C200.536 28.9907 200.549 28.9312 200.574 28.8764C200.599 28.8216 200.635 28.7728 200.68 28.7333C200.725 28.6938 200.779 28.6645 200.836 28.6474C200.894 28.6303 200.954 28.6258 201.013 28.6341C201.684 28.7269 202.317 28.9958 202.851 29.4135C203.384 29.8313 203.799 30.3831 204.052 31.0133C204.305 31.6434 204.388 32.3296 204.292 33.0022C204.196 33.6749 203.926 34.3103 203.507 34.8442C203.089 35.378 202.537 35.7914 201.909 36.0426C201.28 36.2937 200.597 36.3737 199.928 36.2745C199.259 36.1752 198.627 35.9002 198.098 35.4773C197.569 35.0543 197.16 34.4985 196.913 33.8659C196.882 33.7878 196.828 33.7208 196.759 33.6736C196.689 33.6265 196.608 33.6014 196.524 33.6017H194.112Z" fill="white" fill-opacity="0.8"/>
<rect x="222.79" y="15.4736" width="36" height="32" rx="16" fill="#515151"/>
<path d="M242.658 25.7105C241.828 24.2719 239.751 24.2719 238.921 25.7105L234.864 32.7368C234.034 34.1754 235.072 35.9736 236.733 35.9736L244.846 35.9736C246.507 35.9736 247.546 34.1754 246.715 32.7368L242.658 25.7105Z" fill="white" fill-opacity="0.8"/>
<path d="M287.686 33.6017C287.749 33.6017 287.812 33.6162 287.869 33.6442C287.926 33.6722 287.977 33.7129 288.016 33.7632C288.055 33.8136 288.082 33.8722 288.096 33.9347C288.109 33.9972 288.108 34.0619 288.093 34.124C287.786 35.3842 287.137 36.5343 286.219 37.4465C285.301 38.3586 284.149 38.9972 282.891 39.2911C281.633 39.5851 280.319 39.523 279.094 39.1116C277.869 38.7003 276.781 37.9559 275.953 36.9611C275.124 35.9663 274.585 34.7601 274.398 33.4766C274.21 32.193 274.381 30.8823 274.89 29.6902C275.399 28.498 276.228 27.4711 277.283 26.7236C278.339 25.976 279.58 25.537 280.869 25.4555C280.975 25.4488 281.075 25.4018 281.148 25.3239C281.221 25.2461 281.262 25.1433 281.262 25.0364V23.8947C281.262 23.8138 281.285 23.7346 281.328 23.6666C281.372 23.5986 281.434 23.5446 281.507 23.5112C281.581 23.4778 281.662 23.4663 281.742 23.4782C281.821 23.49 281.896 23.5247 281.957 23.578L285.626 26.806C285.671 26.8455 285.707 26.8942 285.732 26.9488C285.756 27.0034 285.769 27.0627 285.769 27.1226C285.769 27.1825 285.756 27.2418 285.732 27.2964C285.707 27.351 285.671 27.3997 285.626 27.4393L281.957 30.6664C281.896 30.7198 281.821 30.7544 281.742 30.7663C281.662 30.7781 281.581 30.7667 281.507 30.7333C281.434 30.6998 281.372 30.6459 281.328 30.5779C281.285 30.5099 281.262 30.4307 281.262 30.3498V29.0509C281.262 28.9907 281.249 28.9312 281.224 28.8764C281.199 28.8216 281.163 28.7728 281.117 28.7333C281.072 28.6938 281.019 28.6645 280.961 28.6474C280.904 28.6303 280.843 28.6258 280.784 28.6341C280.114 28.7269 279.48 28.9958 278.946 29.4135C278.413 29.8313 277.999 30.3831 277.746 31.0133C277.493 31.6434 277.41 32.3296 277.505 33.0022C277.601 33.6749 277.872 34.3103 278.29 34.8442C278.709 35.378 279.26 35.7914 279.888 36.0426C280.517 36.2937 281.2 36.3737 281.87 36.2745C282.539 36.1752 283.17 35.9002 283.699 35.4773C284.229 35.0543 284.638 34.4985 284.885 33.8659C284.916 33.7878 284.969 33.7208 285.039 33.6736C285.108 33.6265 285.19 33.6014 285.274 33.6017H287.686Z" fill="white" fill-opacity="0.8"/>
<rect x="182.474" y="51.7894" width="36" height="32" rx="16" fill="#515151"/>
<path d="M194.71 69.6582C193.272 68.8276 193.272 66.7512 194.71 65.9206L201.737 61.864C203.175 61.0334 204.974 62.0716 204.974 63.7328L204.974 71.8461C204.974 73.5072 203.175 74.5454 201.737 73.7149L194.71 69.6582Z" fill="white" fill-opacity="0.8"/>
<rect x="222.79" y="51.7894" width="36" height="32" rx="16" fill="#515151"/>
<path d="M242.658 73.5526C241.828 74.9912 239.751 74.9912 238.921 73.5526L234.864 66.5263C234.034 65.0877 235.072 63.2894 236.733 63.2894L244.846 63.2894C246.507 63.2894 247.546 65.0877 246.715 66.5263L242.658 73.5526Z" fill="white" fill-opacity="0.8"/>
<rect x="263.105" y="51.7894" width="36" height="32" rx="16" fill="#515151"/>
<path d="M286.868 65.9206C288.307 66.7512 288.307 68.8276 286.868 69.6582L279.842 73.7149C278.403 74.5454 276.605 73.5072 276.605 71.8461L276.605 63.7328C276.605 62.0716 278.403 61.0334 279.842 61.864L286.868 65.9206Z" fill="white" fill-opacity="0.8"/>
<path d="M313.579 9L313.579 90.2632" stroke="white" stroke-opacity="0.2" stroke-width="1.07895" stroke-linecap="round"/>
<g clip-path="url(#clip2_2330_117589)">
<rect x="321.579" y="9" width="35" height="81.2632" rx="8" fill="#363636"/>
<path d="M341.051 22.9015C340.196 21.3469 337.963 21.3469 337.108 22.9015L333.49 29.4817C332.665 30.9812 333.75 32.8158 335.461 32.8158L342.698 32.8158C344.409 32.8158 345.494 30.9812 344.669 29.4817L341.051 22.9015Z" fill="white" fill-opacity="0.8"/>
<rect x="333.079" y="34.7452" width="12" height="2.57143" rx="1.125" fill="white" fill-opacity="0.8"/>
<line x1="321.579" y1="49.0921" x2="356.579" y2="49.0921" stroke="white" stroke-opacity="0.12" stroke-width="1.07895"/>
<path d="M341.051 76.3617C340.196 77.9163 337.963 77.9163 337.108 76.3617L333.49 69.7815C332.665 68.282 333.75 66.4474 335.461 66.4474L342.698 66.4474C344.409 66.4474 345.494 68.282 344.669 69.7815L341.051 76.3617Z" fill="white" fill-opacity="0.8"/>
<rect width="12" height="2.57143" rx="1.125" transform="matrix(1 0 0 -1 333.079 64.5168)" fill="white" fill-opacity="0.8"/>
</g>
<rect x="176" y="97" width="128" height="28" rx="14" fill="#363636"/>
<path d="M192.711 112.415H199.288C199.692 112.415 200.019 112.767 200.019 113.201C200.019 113.635 199.692 113.986 199.288 113.986H192.711C192.308 113.986 191.981 113.635 191.981 113.201C191.981 112.767 192.308 112.415 192.711 112.415Z" fill="white" fill-opacity="0.87"/>
<path d="M201.846 112.415H201.115C200.913 112.415 200.75 112.591 200.75 112.808V113.594C200.75 113.81 200.913 113.986 201.115 113.986H201.846C202.048 113.986 202.211 113.81 202.211 113.594V112.808C202.211 112.591 202.048 112.415 201.846 112.415Z" fill="white" fill-opacity="0.87"/>
<path d="M190.154 112.415H190.885C191.087 112.415 191.25 112.591 191.25 112.808V113.594C191.25 113.81 191.087 113.986 190.885 113.986H190.154C189.952 113.986 189.789 113.81 189.789 113.594V112.808C189.789 112.591 189.952 112.415 190.154 112.415Z" fill="white" fill-opacity="0.87"/>
<path d="M190.885 107.702H190.154C189.952 107.702 189.789 107.878 189.789 108.095V108.88C189.789 109.097 189.952 109.273 190.154 109.273H190.885C191.087 109.273 191.25 109.097 191.25 108.88V108.095C191.25 107.878 191.087 107.702 190.885 107.702Z" fill="white" fill-opacity="0.87"/>
<path d="M192.346 107.702H193.077C193.279 107.702 193.442 107.878 193.442 108.095V108.88C193.442 109.097 193.279 109.273 193.077 109.273H192.346C192.144 109.273 191.981 109.097 191.981 108.88V108.095C191.981 107.878 192.144 107.702 192.346 107.702Z" fill="white" fill-opacity="0.87"/>
<path d="M195.269 107.702H194.538C194.337 107.702 194.173 107.878 194.173 108.095V108.88C194.173 109.097 194.337 109.273 194.538 109.273H195.269C195.471 109.273 195.635 109.097 195.635 108.88V108.095C195.635 107.878 195.471 107.702 195.269 107.702Z" fill="white" fill-opacity="0.87"/>
<path d="M196.731 107.702H197.461C197.663 107.702 197.827 107.878 197.827 108.095V108.88C197.827 109.097 197.663 109.273 197.461 109.273H196.731C196.529 109.273 196.365 109.097 196.365 108.88V108.095C196.365 107.878 196.529 107.702 196.731 107.702Z" fill="white" fill-opacity="0.87"/>
<path d="M201.846 110.059H201.115C200.913 110.059 200.75 110.235 200.75 110.451V111.237C200.75 111.454 200.913 111.63 201.115 111.63H201.846C202.048 111.63 202.211 111.454 202.211 111.237V110.451C202.211 110.235 202.048 110.059 201.846 110.059Z" fill="white" fill-opacity="0.87"/>
<path d="M201.115 107.702H201.846C202.048 107.702 202.211 107.878 202.211 108.095V108.88C202.211 109.097 202.048 109.273 201.846 109.273H201.115C200.913 109.273 200.75 109.097 200.75 108.88V108.095C200.75 107.878 200.913 107.702 201.115 107.702Z" fill="white" fill-opacity="0.87"/>
<path d="M199.654 107.702H198.923C198.721 107.702 198.558 107.878 198.558 108.095V108.88C198.558 109.097 198.721 109.273 198.923 109.273H199.654C199.855 109.273 200.019 109.097 200.019 108.88V108.095C200.019 107.878 199.855 107.702 199.654 107.702Z" fill="white" fill-opacity="0.87"/>
<path d="M198.923 110.059H199.654C199.855 110.059 200.019 110.235 200.019 110.451V111.237C200.019 111.454 199.855 111.63 199.654 111.63H198.923C198.721 111.63 198.558 111.454 198.558 111.237V110.451C198.558 110.235 198.721 110.059 198.923 110.059Z" fill="white" fill-opacity="0.87"/>
<path d="M197.461 110.059H196.731C196.529 110.059 196.365 110.235 196.365 110.451V111.237C196.365 111.454 196.529 111.63 196.731 111.63H197.461C197.663 111.63 197.827 111.454 197.827 111.237V110.451C197.827 110.235 197.663 110.059 197.461 110.059Z" fill="white" fill-opacity="0.87"/>
<path d="M194.538 110.059H195.269C195.471 110.059 195.635 110.235 195.635 110.451V111.237C195.635 111.454 195.471 111.63 195.269 111.63H194.538C194.337 111.63 194.173 111.454 194.173 111.237V110.451C194.173 110.235 194.337 110.059 194.538 110.059Z" fill="white" fill-opacity="0.87"/>
<path d="M193.077 110.059H192.346C192.144 110.059 191.981 110.235 191.981 110.451V111.237C191.981 111.454 192.144 111.63 192.346 111.63H193.077C193.279 111.63 193.442 111.454 193.442 111.237V110.451C193.442 110.235 193.279 110.059 193.077 110.059Z" fill="white" fill-opacity="0.87"/>
<path d="M190.154 110.059H190.885C191.087 110.059 191.25 110.235 191.25 110.451V111.237C191.25 111.454 191.087 111.63 190.885 111.63H190.154C189.952 111.63 189.789 111.454 189.789 111.237V110.451C189.789 110.235 189.952 110.059 190.154 110.059Z" fill="white" fill-opacity="0.87"/>
<path fill-rule="evenodd" clip-rule="evenodd" d="M190.337 106C189.024 106 188 107.136 188 108.488V113.594C188 114.945 189.024 116.081 190.337 116.081H201.663C202.976 116.081 204 114.945 204 113.594V108.488C204 107.136 202.976 106 201.663 106H190.337ZM188.655 108.488C188.655 107.453 189.43 106.655 190.337 106.655H201.663C202.57 106.655 203.345 107.453 203.345 108.488V113.594C203.345 114.629 202.57 115.426 201.663 115.426H190.337C189.43 115.426 188.655 114.629 188.655 113.594V108.488Z" fill="white" fill-opacity="0.87"/>
<line x1="218.5" y1="103" x2="218.5" y2="119" stroke="white" stroke-opacity="0.12"/>
<path d="M244.209 113.288H241.602V108.87C242.096 108.58 242.482 108.136 242.699 107.606C242.916 107.076 242.953 106.49 242.805 105.936C242.656 105.383 242.33 104.894 241.877 104.544C241.423 104.194 240.867 104.003 240.295 104C239.722 103.997 239.164 104.182 238.706 104.527C238.249 104.871 237.917 105.357 237.763 105.908C237.608 106.46 237.639 107.047 237.85 107.579C238.061 108.111 238.442 108.56 238.933 108.855V113.285H236.357C235.732 113.285 235.133 113.534 234.69 113.976C234.248 114.418 234 115.017 234 115.643C234 116.268 234.248 116.867 234.69 117.31C235.133 117.752 235.732 118 236.357 118H244.21C244.835 118 245.434 117.752 245.876 117.31C246.319 116.867 246.567 116.268 246.567 115.643C246.567 115.017 246.319 114.418 245.876 113.976C245.434 113.534 244.835 113.285 244.21 113.285L244.209 113.288ZM236.357 114.597H244.209C244.486 114.597 244.753 114.707 244.949 114.903C245.145 115.099 245.256 115.365 245.256 115.643C245.256 115.92 245.145 116.187 244.949 116.383C244.753 116.579 244.487 116.69 244.209 116.69H236.357C236.079 116.69 235.813 116.579 235.616 116.383C235.42 116.187 235.31 115.92 235.31 115.643C235.31 115.505 235.337 115.369 235.39 115.242C235.442 115.115 235.519 115 235.617 114.903C235.714 114.806 235.829 114.729 235.956 114.676C236.083 114.624 236.219 114.597 236.357 114.597ZM238.714 106.614C238.714 106.32 238.796 106.032 238.951 105.783C239.106 105.533 239.328 105.332 239.591 105.203C239.855 105.073 240.15 105.02 240.442 105.049C240.734 105.079 241.012 105.19 241.245 105.37C241.477 105.549 241.655 105.791 241.757 106.066C241.859 106.342 241.881 106.64 241.822 106.928C241.763 107.216 241.624 107.481 241.422 107.694C241.22 107.907 240.961 108.059 240.677 108.132C240.422 108.202 240.152 108.202 239.897 108.132C239.559 108.047 239.259 107.852 239.044 107.577C238.829 107.303 238.711 106.964 238.709 106.616L238.714 106.614Z" fill="white" fill-opacity="0.87"/>
<line x1="262.5" y1="103" x2="262.5" y2="119" stroke="white" stroke-opacity="0.12"/>
<path d="M277.491 116.945C276.996 116.945 276.609 116.779 276.329 116.447C276.048 116.115 275.947 115.655 276.026 115.069L276.964 108.521C277.068 107.831 277.39 107.238 277.931 106.743C278.472 106.248 279.088 106 279.778 106H288.241C288.932 106 289.548 106.248 290.088 106.743C290.629 107.238 290.952 107.831 291.056 108.521L291.974 115.069C292.053 115.655 291.952 116.115 291.671 116.447C291.391 116.779 291.004 116.945 290.509 116.945C290.209 116.945 289.955 116.896 289.746 116.799C289.538 116.701 289.362 116.58 289.219 116.437L287.186 114.404H280.814L278.781 116.437C278.638 116.58 278.462 116.701 278.254 116.799C278.045 116.896 277.791 116.945 277.491 116.945ZM288.3 112.254C288.508 112.254 288.691 112.176 288.847 112.02C289.004 111.864 289.082 111.681 289.082 111.473C289.082 111.264 289.004 111.082 288.847 110.925C288.691 110.769 288.508 110.691 288.3 110.691C288.091 110.691 287.909 110.769 287.753 110.925C287.596 111.082 287.518 111.264 287.518 111.473C287.518 111.681 287.596 111.864 287.753 112.02C287.909 112.176 288.091 112.254 288.3 112.254ZM286.639 109.714C286.847 109.714 287.029 109.635 287.186 109.479C287.342 109.323 287.42 109.14 287.42 108.932C287.42 108.723 287.342 108.541 287.186 108.385C287.029 108.228 286.847 108.15 286.639 108.15C286.43 108.15 286.248 108.228 286.091 108.385C285.935 108.541 285.857 108.723 285.857 108.932C285.857 109.14 285.935 109.323 286.091 109.479C286.248 109.635 286.43 109.714 286.639 109.714ZM280.482 112.157H281.459V110.691H282.925V109.714H281.459V108.248H280.482V109.714H279.016V110.691H280.482V112.157Z" fill="white" fill-opacity="0.87"/>
<path d="M333.024 106.333H339.881V104.81C339.881 104.175 339.659 103.635 339.214 103.19C338.77 102.746 338.23 102.524 337.595 102.524C336.96 102.524 336.421 102.746 335.976 103.19C335.532 103.635 335.31 104.175 335.31 104.81H333.786C333.786 103.756 334.157 102.857 334.9 102.114C335.643 101.371 336.541 101 337.595 101C338.649 101 339.548 101.371 340.29 102.114C341.033 102.857 341.405 103.756 341.405 104.81V106.333H342.167C342.586 106.333 342.944 106.483 343.243 106.781C343.541 107.079 343.69 107.438 343.69 107.857V115.476C343.69 115.895 343.541 116.254 343.243 116.552C342.944 116.851 342.586 117 342.167 117H333.024C332.605 117 332.246 116.851 331.948 116.552C331.649 116.254 331.5 115.895 331.5 115.476V107.857C331.5 107.438 331.649 107.079 331.948 106.781C332.246 106.483 332.605 106.333 333.024 106.333ZM337.595 113.19C338.014 113.19 338.373 113.041 338.671 112.743C338.97 112.444 339.119 112.086 339.119 111.667C339.119 111.248 338.97 110.889 338.671 110.59C338.373 110.292 338.014 110.143 337.595 110.143C337.176 110.143 336.817 110.292 336.519 110.59C336.221 110.889 336.071 111.248 336.071 111.667C336.071 112.086 336.221 112.444 336.519 112.743C336.817 113.041 337.176 113.19 337.595 113.19Z" fill="white" fill-opacity="0.87"/>
<defs>
<filter id="filter0_b_2330_117589" x="-2.95588" y="-2.95588" width="165.912" height="139.912" filterUnits="userSpaceOnUse" color-interpolation-filters="sRGB">
<feFlood flood-opacity="0" result="BackgroundImageFix"/>
<feGaussianBlur in="BackgroundImageFix" stdDeviation="1.47794"/>
<feComposite in2="SourceAlpha" operator="in" result="effect1_backgroundBlur_2330_117589"/>
<feBlend mode="normal" in="SourceGraphic" in2="effect1_backgroundBlur_2330_117589" result="shape"/>
</filter>
<filter id="filter1_b_2330_117589" x="9.38872" y="10.2425" width="114.37" height="114.369" filterUnits="userSpaceOnUse" color-interpolation-filters="sRGB">
<feFlood flood-opacity="0" result="BackgroundImageFix"/>
<feGaussianBlur in="BackgroundImageFix" stdDeviation="1.70701"/>
<feComposite in2="SourceAlpha" operator="in" result="effect1_backgroundBlur_2330_117589"/>
<feBlend mode="normal" in="SourceGraphic" in2="effect1_backgroundBlur_2330_117589" result="shape"/>
</filter>
<filter id="filter2_b_2330_117589" x="94.9234" y="63.4512" width="31.518" height="34.8987" filterUnits="userSpaceOnUse" color-interpolation-filters="sRGB">
<feFlood flood-opacity="0" result="BackgroundImageFix"/>
<feGaussianBlur in="BackgroundImageFix" stdDeviation="1.70701"/>
<feComposite in2="SourceAlpha" operator="in" result="effect1_backgroundBlur_2330_117589"/>
<feBlend mode="normal" in="SourceGraphic" in2="effect1_backgroundBlur_2330_117589" result="shape"/>
</filter>
<filter id="filter3_b_2330_117589" x="63.4512" y="7.2896" width="34.8988" height="43.9357" filterUnits="userSpaceOnUse" color-interpolation-filters="sRGB">
<feFlood flood-opacity="0" result="BackgroundImageFix"/>
<feGaussianBlur in="BackgroundImageFix" stdDeviation="1.70701"/>
<feComposite in2="SourceAlpha" operator="in" result="effect1_backgroundBlur_2330_117589"/>
<feBlend mode="normal" in="SourceGraphic" in2="effect1_backgroundBlur_2330_117589" result="shape"/>
</filter>
<filter id="filter4_b_2330_117589" x="81.399" y="14.8135" width="37.5121" height="37.5116" filterUnits="userSpaceOnUse" color-interpolation-filters="sRGB">
<feFlood flood-opacity="0" result="BackgroundImageFix"/>
<feGaussianBlur in="BackgroundImageFix" stdDeviation="1.70701"/>
<feComposite in2="SourceAlpha" operator="in" result="effect1_backgroundBlur_2330_117589"/>
<feBlend mode="normal" in="SourceGraphic" in2="effect1_backgroundBlur_2330_117589" result="shape"/>
</filter>
<filter id="filter5_b_2330_117589" x="87.9893" y="35.3705" width="38.452" height="34.903" filterUnits="userSpaceOnUse" color-interpolation-filters="sRGB">
<feFlood flood-opacity="0" result="BackgroundImageFix"/>
<feGaussianBlur in="BackgroundImageFix" stdDeviation="1.70701"/>
<feComposite in2="SourceAlpha" operator="in" result="effect1_backgroundBlur_2330_117589"/>
<feBlend mode="normal" in="SourceGraphic" in2="effect1_backgroundBlur_2330_117589" result="shape"/>
</filter>
<filter id="filter6_b_2330_117589" x="63.462" y="106.055" width="34.8988" height="20.3863" filterUnits="userSpaceOnUse" color-interpolation-filters="sRGB">
<feFlood flood-opacity="0" result="BackgroundImageFix"/>
<feGaussianBlur in="BackgroundImageFix" stdDeviation="1.70701"/>
<feComposite in2="SourceAlpha" operator="in" result="effect1_backgroundBlur_2330_117589"/>
<feBlend mode="normal" in="SourceGraphic" in2="effect1_backgroundBlur_2330_117589" result="shape"/>
</filter>
<filter id="filter7_b_2330_117589" x="85.0127" y="85.0054" width="33.9042" height="33.9057" filterUnits="userSpaceOnUse" color-interpolation-filters="sRGB">
<feFlood flood-opacity="0" result="BackgroundImageFix"/>
<feGaussianBlur in="BackgroundImageFix" stdDeviation="1.70701"/>
<feComposite in2="SourceAlpha" operator="in" result="effect1_backgroundBlur_2330_117589"/>
<feBlend mode="normal" in="SourceGraphic" in2="effect1_backgroundBlur_2330_117589" result="shape"/>
</filter>
<filter id="filter8_b_2330_117589" x="7.2896" y="63.4516" width="41.038" height="34.8987" filterUnits="userSpaceOnUse" color-interpolation-filters="sRGB">
<feFlood flood-opacity="0" result="BackgroundImageFix"/>
<feGaussianBlur in="BackgroundImageFix" stdDeviation="1.70701"/>
<feComposite in2="SourceAlpha" operator="in" result="effect1_backgroundBlur_2330_117589"/>
<feBlend mode="normal" in="SourceGraphic" in2="effect1_backgroundBlur_2330_117589" result="shape"/>
</filter>
<filter id="filter9_b_2330_117589" x="35.3809" y="7.28997" width="34.8988" height="38.9269" filterUnits="userSpaceOnUse" color-interpolation-filters="sRGB">
<feFlood flood-opacity="0" result="BackgroundImageFix"/>
<feGaussianBlur in="BackgroundImageFix" stdDeviation="1.70701"/>
<feComposite in2="SourceAlpha" operator="in" result="effect1_backgroundBlur_2330_117589"/>
<feBlend mode="normal" in="SourceGraphic" in2="effect1_backgroundBlur_2330_117589" result="shape"/>
</filter>
<filter id="filter10_b_2330_117589" x="14.8199" y="14.814" width="30.4721" height="30.4687" filterUnits="userSpaceOnUse" color-interpolation-filters="sRGB">
<feFlood flood-opacity="0" result="BackgroundImageFix"/>
<feGaussianBlur in="BackgroundImageFix" stdDeviation="1.70701"/>
<feComposite in2="SourceAlpha" operator="in" result="effect1_backgroundBlur_2330_117589"/>
<feBlend mode="normal" in="SourceGraphic" in2="effect1_backgroundBlur_2330_117589" result="shape"/>
</filter>
<filter id="filter11_b_2330_117589" x="7.2896" y="35.3705" width="15.5014" height="34.8975" filterUnits="userSpaceOnUse" color-interpolation-filters="sRGB">
<feFlood flood-opacity="0" result="BackgroundImageFix"/>
<feGaussianBlur in="BackgroundImageFix" stdDeviation="1.70701"/>
<feComposite in2="SourceAlpha" operator="in" result="effect1_backgroundBlur_2330_117589"/>
<feBlend mode="normal" in="SourceGraphic" in2="effect1_backgroundBlur_2330_117589" result="shape"/>
</filter>
<filter id="filter12_b_2330_117589" x="35.3702" y="98.821" width="34.9003" height="27.6206" filterUnits="userSpaceOnUse" color-interpolation-filters="sRGB">
<feFlood flood-opacity="0" result="BackgroundImageFix"/>
<feGaussianBlur in="BackgroundImageFix" stdDeviation="1.70701"/>
<feComposite in2="SourceAlpha" operator="in" result="effect1_backgroundBlur_2330_117589"/>
<feBlend mode="normal" in="SourceGraphic" in2="effect1_backgroundBlur_2330_117589" result="shape"/>
</filter>
<filter id="filter13_b_2330_117589" x="14.814" y="86.1338" width="32.7758" height="32.7776" filterUnits="userSpaceOnUse" color-interpolation-filters="sRGB">
<feFlood flood-opacity="0" result="BackgroundImageFix"/>
<feGaussianBlur in="BackgroundImageFix" stdDeviation="1.70701"/>
<feComposite in2="SourceAlpha" operator="in" result="effect1_backgroundBlur_2330_117589"/>
<feBlend mode="normal" in="SourceGraphic" in2="effect1_backgroundBlur_2330_117589" result="shape"/>
</filter>
<filter id="filter14_b_2330_117589" x="27.3121" y="28.1656" width="78.5224" height="78.5222" filterUnits="userSpaceOnUse" color-interpolation-filters="sRGB">
<feFlood flood-opacity="0" result="BackgroundImageFix"/>
<feGaussianBlur in="BackgroundImageFix" stdDeviation="1.70701"/>
<feComposite in2="SourceAlpha" operator="in" result="effect1_backgroundBlur_2330_117589"/>
<feBlend mode="normal" in="SourceGraphic" in2="effect1_backgroundBlur_2330_117589" result="shape"/>
</filter>
<filter id="filter15_b_2330_117589" x="45.2359" y="46.0892" width="42.6752" height="42.6752" filterUnits="userSpaceOnUse" color-interpolation-filters="sRGB">
<feFlood flood-opacity="0" result="BackgroundImageFix"/>
<feGaussianBlur in="BackgroundImageFix" stdDeviation="1.70701"/>
<feComposite in2="SourceAlpha" operator="in" result="effect1_backgroundBlur_2330_117589"/>
<feBlend mode="normal" in="SourceGraphic" in2="effect1_backgroundBlur_2330_117589" result="shape"/>
</filter>
<filter id="filter16_d_2330_117589" x="55.3731" y="59.0931" width="22.4003" height="22.3974" filterUnits="userSpaceOnUse" color-interpolation-filters="sRGB">
<feFlood flood-opacity="0" result="BackgroundImageFix"/>
<feColorMatrix in="SourceAlpha" type="matrix" values="0 0 0 0 0 0 0 0 0 0 0 0 0 0 0 0 0 0 127 0" result="hardAlpha"/>
<feOffset dy="3.41401"/>
<feGaussianBlur stdDeviation="1.70701"/>
<feComposite in2="hardAlpha" operator="out"/>
<feColorMatrix type="matrix" values="0 0 0 0 0 0 0 0 0 0 0 0 0 0 0 0 0 0 0.25 0"/>
<feBlend mode="normal" in2="BackgroundImageFix" result="effect1_dropShadow_2330_117589"/>
<feBlend mode="normal" in="SourceGraphic" in2="effect1_dropShadow_2330_117589" result="shape"/>
</filter>
<clipPath id="clip0_2330_117589">
<rect width="11.8232" height="3.94108" fill="white" transform="translate(141.028 78.8235)"/>
</clipPath>
<clipPath id="clip1_2330_117589">
<rect width="11.8232" height="3.94108" fill="white" transform="translate(152.852 62.0739) rotate(180)"/>
</clipPath>
<clipPath id="clip2_2330_117589">
<rect x="321.579" y="9" width="35" height="81.2632" rx="8" fill="white"/>
</clipPath>
</defs>
</svg>
