<svg width="440" height="88" viewBox="0 0 440 88" fill="none" xmlns="http://www.w3.org/2000/svg">
<g clip-path="url(#clip0_2424_40726)">
<rect width="440" height="88" rx="10" fill="#272727"/>
<rect width="440" height="32" fill="#272727"/>
<path d="M13.036 21V11.2H14.212L19.434 19.054V11.2H20.61V21H19.434L14.212 13.146V21H13.036ZM23.3533 12.516C23.12 12.516 22.924 12.4413 22.7653 12.292C22.616 12.1333 22.5413 11.9373 22.5413 11.704C22.5413 11.48 22.616 11.2933 22.7653 11.144C22.924 10.9947 23.12 10.92 23.3533 10.92C23.5773 10.92 23.7687 10.9947 23.9273 11.144C24.086 11.2933 24.1653 11.48 24.1653 11.704C24.1653 11.9373 24.086 12.1333 23.9273 12.292C23.7687 12.4413 23.5773 12.516 23.3533 12.516ZM22.7653 21V14.056H23.9413V21H22.7653ZM28.754 18.816C28.362 18.816 28.0026 18.7647 27.676 18.662L26.976 19.32C27.0786 19.3947 27.2046 19.46 27.354 19.516C27.5126 19.5627 27.7366 19.6093 28.026 19.656C28.3153 19.6933 28.7213 19.7353 29.244 19.782C30.1773 19.8473 30.8446 20.062 31.246 20.426C31.6473 20.79 31.848 21.266 31.848 21.854C31.848 22.2553 31.736 22.638 31.512 23.002C31.2973 23.366 30.9613 23.6647 30.504 23.898C30.056 24.1313 29.4773 24.248 28.768 24.248C28.1426 24.248 27.5873 24.164 27.102 23.996C26.6166 23.8373 26.2386 23.59 25.968 23.254C25.6973 22.9273 25.562 22.512 25.562 22.008C25.562 21.7467 25.632 21.462 25.772 21.154C25.912 20.8553 26.1733 20.5707 26.556 20.3C26.3506 20.216 26.1733 20.1273 26.024 20.034C25.884 19.9313 25.7533 19.8193 25.632 19.698V19.376L26.822 18.2C26.2713 17.7333 25.996 17.1173 25.996 16.352C25.996 15.8947 26.1033 15.4793 26.318 15.106C26.5326 14.7327 26.8453 14.4387 27.256 14.224C27.6666 14 28.166 13.888 28.754 13.888C29.1553 13.888 29.5193 13.944 29.846 14.056H32.408V14.938L31.106 14.994C31.3766 15.386 31.512 15.8387 31.512 16.352C31.512 16.8093 31.4 17.2247 31.176 17.598C30.9613 17.9713 30.6486 18.27 30.238 18.494C29.8366 18.7087 29.342 18.816 28.754 18.816ZM28.754 17.85C29.2486 17.85 29.6406 17.724 29.93 17.472C30.2286 17.2107 30.378 16.8373 30.378 16.352C30.378 15.876 30.2286 15.512 29.93 15.26C29.6406 14.9987 29.2486 14.868 28.754 14.868C28.25 14.868 27.8486 14.9987 27.55 15.26C27.2606 15.512 27.116 15.876 27.116 16.352C27.116 16.8373 27.2606 17.2107 27.55 17.472C27.8486 17.724 28.25 17.85 28.754 17.85ZM26.71 21.896C26.71 22.3627 26.906 22.708 27.298 22.932C27.69 23.1653 28.18 23.282 28.768 23.282C29.3466 23.282 29.8086 23.156 30.154 22.904C30.5086 22.652 30.686 22.316 30.686 21.896C30.686 21.5973 30.5646 21.336 30.322 21.112C30.0793 20.8973 29.6313 20.7713 28.978 20.734C28.4646 20.6967 28.0213 20.65 27.648 20.594C27.2653 20.7993 27.0133 21.0187 26.892 21.252C26.7706 21.4947 26.71 21.7093 26.71 21.896ZM33.7556 21V10.92H34.9316V15.246C35.1649 14.8167 35.4962 14.4853 35.9256 14.252C36.3549 14.0093 36.8216 13.888 37.3256 13.888C38.1282 13.888 38.7722 14.14 39.2576 14.644C39.7429 15.1387 39.9856 15.904 39.9856 16.94V21H38.8236V17.066C38.8236 15.6193 38.2402 14.896 37.0736 14.896C36.4669 14.896 35.9582 15.1153 35.5476 15.554C35.1369 15.9833 34.9316 16.5993 34.9316 17.402V21H33.7556ZM44.5323 21C43.8976 21 43.3983 20.846 43.0343 20.538C42.6703 20.23 42.4883 19.6747 42.4883 18.872V15.05H41.2843V14.056H42.4883L42.6423 12.39H43.6643V14.056H45.7083V15.05H43.6643V18.872C43.6643 19.3107 43.7529 19.6093 43.9303 19.768C44.1076 19.9173 44.4203 19.992 44.8683 19.992H45.5963V21H44.5323ZM51.0194 21V11.2H54.2394C55.0048 11.2 55.6348 11.326 56.1294 11.578C56.6241 11.83 56.9881 12.1707 57.2214 12.6C57.4641 13.0293 57.5854 13.5147 57.5854 14.056C57.5854 14.588 57.4688 15.0687 57.2354 15.498C57.0021 15.9273 56.6381 16.2727 56.1434 16.534C55.6488 16.786 55.0141 16.912 54.2394 16.912H52.1954V21H51.0194ZM52.1954 15.918H54.2114C54.9954 15.918 55.5508 15.7547 55.8774 15.428C56.2134 15.092 56.3814 14.6347 56.3814 14.056C56.3814 13.468 56.2134 13.0107 55.8774 12.684C55.5508 12.348 54.9954 12.18 54.2114 12.18H52.1954V15.918ZM61.0597 21.168C60.4811 21.168 60.0004 21.07 59.6177 20.874C59.2351 20.678 58.9504 20.4167 58.7637 20.09C58.5771 19.7633 58.4837 19.4087 58.4837 19.026C58.4837 18.3167 58.7544 17.7707 59.2957 17.388C59.8371 17.0053 60.5744 16.814 61.5077 16.814H63.3837V16.73C63.3837 16.1233 63.2251 15.666 62.9077 15.358C62.5904 15.0407 62.1657 14.882 61.6337 14.882C61.1764 14.882 60.7797 14.9987 60.4437 15.232C60.1171 15.456 59.9117 15.7873 59.8277 16.226H58.6237C58.6704 15.722 58.8384 15.2973 59.1277 14.952C59.4264 14.6067 59.7951 14.3453 60.2337 14.168C60.6724 13.9813 61.1391 13.888 61.6337 13.888C62.6044 13.888 63.3324 14.1493 63.8177 14.672C64.3124 15.1853 64.5597 15.8713 64.5597 16.73V21H63.5097L63.4397 19.754C63.2437 20.146 62.9544 20.482 62.5717 20.762C62.1984 21.0327 61.6944 21.168 61.0597 21.168ZM61.2417 20.174C61.6897 20.174 62.0724 20.0573 62.3897 19.824C62.7164 19.5907 62.9637 19.2873 63.1317 18.914C63.2997 18.5407 63.3837 18.1487 63.3837 17.738V17.724H61.6057C60.9151 17.724 60.4251 17.8453 60.1357 18.088C59.8557 18.3213 59.7157 18.6153 59.7157 18.97C59.7157 19.334 59.8464 19.628 60.1077 19.852C60.3784 20.0667 60.7564 20.174 61.2417 20.174ZM68.8975 21C68.2629 21 67.7635 20.846 67.3995 20.538C67.0355 20.23 66.8535 19.6747 66.8535 18.872V15.05H65.6495V14.056H66.8535L67.0075 12.39H68.0295V14.056H70.0735V15.05H68.0295V18.872C68.0295 19.3107 68.1182 19.6093 68.2955 19.768C68.4729 19.9173 68.7855 19.992 69.2335 19.992H69.9615V21H68.8975ZM71.5886 21V14.056H72.6526L72.7506 15.386C72.9653 14.9287 73.2919 14.5647 73.7306 14.294C74.1693 14.0233 74.7106 13.888 75.3546 13.888V15.12H75.0326C74.6219 15.12 74.2439 15.1947 73.8986 15.344C73.5533 15.484 73.2779 15.7267 73.0726 16.072C72.8673 16.4173 72.7646 16.8933 72.7646 17.5V21H71.5886ZM79.5998 21.168C78.9464 21.168 78.3584 21.0187 77.8358 20.72C77.3131 20.4213 76.8978 20.0013 76.5898 19.46C76.2911 18.9093 76.1418 18.2653 76.1418 17.528C76.1418 16.7907 76.2958 16.1513 76.6038 15.61C76.9118 15.0593 77.3271 14.6347 77.8498 14.336C78.3818 14.0373 78.9744 13.888 79.6278 13.888C80.2811 13.888 80.8691 14.0373 81.3918 14.336C81.9144 14.6347 82.3251 15.0593 82.6238 15.61C82.9318 16.1513 83.0858 16.7907 83.0858 17.528C83.0858 18.2653 82.9318 18.9093 82.6238 19.46C82.3158 20.0013 81.8958 20.4213 81.3638 20.72C80.8411 21.0187 80.2531 21.168 79.5998 21.168ZM79.5998 20.16C80.0011 20.16 80.3744 20.062 80.7198 19.866C81.0651 19.67 81.3451 19.376 81.5598 18.984C81.7744 18.592 81.8818 18.1067 81.8818 17.528C81.8818 16.9493 81.7744 16.464 81.5598 16.072C81.3544 15.68 81.0791 15.386 80.7338 15.19C80.3884 14.994 80.0198 14.896 79.6278 14.896C79.2264 14.896 78.8531 14.994 78.5078 15.19C78.1624 15.386 77.8824 15.68 77.6678 16.072C77.4531 16.464 77.3458 16.9493 77.3458 17.528C77.3458 18.1067 77.4531 18.592 77.6678 18.984C77.8824 19.376 78.1578 19.67 78.4938 19.866C78.8391 20.062 79.2078 20.16 79.5998 20.16ZM84.7419 21V10.92H85.9179V21H84.7419ZM91.6625 21V11.2H93.0345L96.5625 18.032L100.063 11.2H101.449V21H100.273V13.3L96.9965 19.6H96.1145L92.8385 13.314V21H91.6625ZM104.181 12.516C103.948 12.516 103.752 12.4413 103.593 12.292C103.444 12.1333 103.369 11.9373 103.369 11.704C103.369 11.48 103.444 11.2933 103.593 11.144C103.752 10.9947 103.948 10.92 104.181 10.92C104.405 10.92 104.596 10.9947 104.755 11.144C104.914 11.2933 104.993 11.48 104.993 11.704C104.993 11.9373 104.914 12.1333 104.755 12.292C104.596 12.4413 104.405 12.516 104.181 12.516ZM103.593 21V14.056H104.769V21H103.593ZM109.498 21.168C108.667 21.168 107.976 20.958 107.426 20.538C106.875 20.118 106.553 19.5487 106.46 18.83H107.664C107.738 19.194 107.93 19.5113 108.238 19.782C108.555 20.0433 108.98 20.174 109.512 20.174C110.006 20.174 110.37 20.0713 110.604 19.866C110.837 19.6513 110.954 19.3993 110.954 19.11C110.954 18.69 110.8 18.41 110.492 18.27C110.193 18.13 109.768 18.004 109.218 17.892C108.844 17.8173 108.471 17.71 108.098 17.57C107.724 17.43 107.412 17.234 107.16 16.982C106.908 16.7207 106.782 16.38 106.782 15.96C106.782 15.3533 107.006 14.8587 107.454 14.476C107.911 14.084 108.527 13.888 109.302 13.888C110.039 13.888 110.641 14.0747 111.108 14.448C111.584 14.812 111.859 15.3347 111.934 16.016H110.772C110.725 15.6613 110.571 15.386 110.31 15.19C110.058 14.9847 109.717 14.882 109.288 14.882C108.868 14.882 108.541 14.9707 108.308 15.148C108.084 15.3253 107.972 15.5587 107.972 15.848C107.972 16.128 108.116 16.3473 108.406 16.506C108.704 16.6647 109.106 16.8 109.61 16.912C110.039 17.0053 110.445 17.122 110.828 17.262C111.22 17.3927 111.537 17.5933 111.78 17.864C112.032 18.1253 112.158 18.508 112.158 19.012C112.167 19.6373 111.929 20.1553 111.444 20.566C110.968 20.9673 110.319 21.168 109.498 21.168ZM116.519 21.168C115.688 21.168 114.997 20.958 114.447 20.538C113.896 20.118 113.574 19.5487 113.481 18.83H114.685C114.759 19.194 114.951 19.5113 115.259 19.782C115.576 20.0433 116.001 20.174 116.533 20.174C117.027 20.174 117.391 20.0713 117.625 19.866C117.858 19.6513 117.975 19.3993 117.975 19.11C117.975 18.69 117.821 18.41 117.513 18.27C117.214 18.13 116.789 18.004 116.239 17.892C115.865 17.8173 115.492 17.71 115.119 17.57C114.745 17.43 114.433 17.234 114.181 16.982C113.929 16.7207 113.803 16.38 113.803 15.96C113.803 15.3533 114.027 14.8587 114.475 14.476C114.932 14.084 115.548 13.888 116.323 13.888C117.06 13.888 117.662 14.0747 118.129 14.448C118.605 14.812 118.88 15.3347 118.955 16.016H117.793C117.746 15.6613 117.592 15.386 117.331 15.19C117.079 14.9847 116.738 14.882 116.309 14.882C115.889 14.882 115.562 14.9707 115.329 15.148C115.105 15.3253 114.993 15.5587 114.993 15.848C114.993 16.128 115.137 16.3473 115.427 16.506C115.725 16.6647 116.127 16.8 116.631 16.912C117.06 17.0053 117.466 17.122 117.849 17.262C118.241 17.3927 118.558 17.5933 118.801 17.864C119.053 18.1253 119.179 18.508 119.179 19.012C119.188 19.6373 118.95 20.1553 118.465 20.566C117.989 20.9673 117.34 21.168 116.519 21.168ZM121.594 12.516C121.36 12.516 121.164 12.4413 121.006 12.292C120.856 12.1333 120.782 11.9373 120.782 11.704C120.782 11.48 120.856 11.2933 121.006 11.144C121.164 10.9947 121.36 10.92 121.594 10.92C121.818 10.92 122.009 10.9947 122.168 11.144C122.326 11.2933 122.406 11.48 122.406 11.704C122.406 11.9373 122.326 12.1333 122.168 12.292C122.009 12.4413 121.818 12.516 121.594 12.516ZM121.006 21V14.056H122.182V21H121.006ZM127.414 21.168C126.761 21.168 126.173 21.0187 125.65 20.72C125.128 20.4213 124.712 20.0013 124.404 19.46C124.106 18.9093 123.956 18.2653 123.956 17.528C123.956 16.7907 124.11 16.1513 124.418 15.61C124.726 15.0593 125.142 14.6347 125.664 14.336C126.196 14.0373 126.789 13.888 127.442 13.888C128.096 13.888 128.684 14.0373 129.206 14.336C129.729 14.6347 130.14 15.0593 130.438 15.61C130.746 16.1513 130.9 16.7907 130.9 17.528C130.9 18.2653 130.746 18.9093 130.438 19.46C130.13 20.0013 129.71 20.4213 129.178 20.72C128.656 21.0187 128.068 21.168 127.414 21.168ZM127.414 20.16C127.816 20.16 128.189 20.062 128.534 19.866C128.88 19.67 129.16 19.376 129.374 18.984C129.589 18.592 129.696 18.1067 129.696 17.528C129.696 16.9493 129.589 16.464 129.374 16.072C129.169 15.68 128.894 15.386 128.548 15.19C128.203 14.994 127.834 14.896 127.442 14.896C127.041 14.896 126.668 14.994 126.322 15.19C125.977 15.386 125.697 15.68 125.482 16.072C125.268 16.464 125.16 16.9493 125.16 17.528C125.16 18.1067 125.268 18.592 125.482 18.984C125.697 19.376 125.972 19.67 126.308 19.866C126.654 20.062 127.022 20.16 127.414 20.16ZM132.556 21V14.056H133.62L133.69 15.302C133.914 14.8633 134.236 14.518 134.656 14.266C135.076 14.014 135.552 13.888 136.084 13.888C136.906 13.888 137.559 14.14 138.044 14.644C138.539 15.1387 138.786 15.904 138.786 16.94V21H137.61V17.066C137.61 15.6193 137.013 14.896 135.818 14.896C135.221 14.896 134.722 15.1153 134.32 15.554C133.928 15.9833 133.732 16.5993 133.732 17.402V21H132.556Z" fill="white" fill-opacity="0.6"/>
<path d="M349.788 20V18.2H345.528V17.42L349.608 11.6H350.784V17.312H352.032V18.2H350.784V20H349.788ZM346.644 17.312H349.836V12.716L346.644 17.312ZM352.746 21.14L355.758 10.832H356.754L353.742 21.14H352.746ZM360.526 20.144C359.95 20.144 359.45 20.04 359.026 19.832C358.602 19.624 358.262 19.34 358.006 18.98C357.758 18.612 357.606 18.196 357.55 17.732H358.534C358.63 18.196 358.854 18.572 359.206 18.86C359.558 19.14 360.002 19.28 360.538 19.28C360.938 19.28 361.282 19.188 361.57 19.004C361.858 18.812 362.078 18.556 362.23 18.236C362.39 17.916 362.47 17.56 362.47 17.168C362.47 16.544 362.294 16.04 361.942 15.656C361.59 15.272 361.134 15.08 360.574 15.08C360.11 15.08 359.714 15.184 359.386 15.392C359.058 15.6 358.818 15.872 358.666 16.208H357.706L358.426 11.6H362.83V12.476H359.206L358.714 15.032C358.906 14.8 359.17 14.608 359.506 14.456C359.85 14.304 360.242 14.228 360.682 14.228C361.234 14.228 361.714 14.356 362.122 14.612C362.538 14.868 362.862 15.216 363.094 15.656C363.326 16.096 363.442 16.596 363.442 17.156C363.442 17.692 363.326 18.188 363.094 18.644C362.87 19.1 362.538 19.464 362.098 19.736C361.666 20.008 361.142 20.144 360.526 20.144ZM370.017 20.012L367.713 11.6H368.793L370.605 18.812L372.669 11.6H373.785L375.789 18.812L377.625 11.6H378.705L376.353 20H375.201L373.197 13.064L371.145 20L370.017 20.012ZM379.939 20V11.6H382.699C383.355 11.6 383.895 11.708 384.319 11.924C384.743 12.14 385.055 12.432 385.255 12.8C385.463 13.168 385.567 13.584 385.567 14.048C385.567 14.504 385.467 14.916 385.267 15.284C385.067 15.652 384.755 15.948 384.331 16.172C383.907 16.388 383.363 16.496 382.699 16.496H380.947V20H379.939ZM380.947 15.644H382.675C383.347 15.644 383.823 15.504 384.103 15.224C384.391 14.936 384.535 14.544 384.535 14.048C384.535 13.544 384.391 13.152 384.103 12.872C383.823 12.584 383.347 12.44 382.675 12.44H380.947V15.644Z" fill="white" fill-opacity="0.87"/>
<line x1="394.5" y1="9" x2="394.5" y2="23" stroke="white" stroke-opacity="0.2"/>
<path d="M406.638 20.144C406.086 20.144 405.59 20.044 405.15 19.844C404.71 19.636 404.362 19.352 404.106 18.992C403.858 18.624 403.734 18.2 403.734 17.72C403.734 17.208 403.882 16.748 404.178 16.34C404.482 15.932 404.882 15.66 405.378 15.524C404.922 15.372 404.57 15.128 404.322 14.792C404.074 14.456 403.95 14.088 403.95 13.688C403.95 13.28 404.058 12.908 404.274 12.572C404.49 12.228 404.798 11.956 405.198 11.756C405.598 11.556 406.078 11.456 406.638 11.456C407.198 11.456 407.678 11.556 408.078 11.756C408.478 11.956 408.786 12.228 409.002 12.572C409.218 12.908 409.326 13.28 409.326 13.688C409.326 14.08 409.202 14.448 408.954 14.792C408.706 15.128 408.354 15.372 407.898 15.524C408.394 15.66 408.79 15.932 409.086 16.34C409.39 16.748 409.542 17.208 409.542 17.72C409.542 18.2 409.414 18.624 409.158 18.992C408.91 19.352 408.566 19.636 408.126 19.844C407.686 20.044 407.19 20.144 406.638 20.144ZM406.638 15.164C407.15 15.164 407.554 15.036 407.85 14.78C408.154 14.516 408.306 14.172 408.306 13.748C408.306 13.276 408.158 12.92 407.862 12.68C407.566 12.44 407.158 12.32 406.638 12.32C406.118 12.32 405.71 12.44 405.414 12.68C405.126 12.92 404.982 13.276 404.982 13.748C404.982 14.172 405.13 14.516 405.426 14.78C405.722 15.036 406.126 15.164 406.638 15.164ZM406.638 19.256C407.27 19.256 407.742 19.112 408.054 18.824C408.374 18.528 408.534 18.14 408.534 17.66C408.534 17.116 408.362 16.704 408.018 16.424C407.674 16.144 407.214 16.004 406.638 16.004C406.062 16.004 405.602 16.144 405.258 16.424C404.914 16.704 404.742 17.116 404.742 17.66C404.742 18.14 404.898 18.528 405.21 18.824C405.53 19.112 406.006 19.256 406.638 19.256ZM414.514 20.144C413.77 20.144 413.126 19.964 412.582 19.604C412.046 19.236 411.634 18.728 411.346 18.08C411.058 17.424 410.914 16.664 410.914 15.8C410.914 14.936 411.058 14.18 411.346 13.532C411.634 12.876 412.046 12.368 412.582 12.008C413.126 11.64 413.77 11.456 414.514 11.456C415.258 11.456 415.898 11.64 416.434 12.008C416.97 12.368 417.382 12.876 417.67 13.532C417.958 14.18 418.102 14.936 418.102 15.8C418.102 16.664 417.958 17.424 417.67 18.08C417.382 18.728 416.97 19.236 416.434 19.604C415.898 19.964 415.258 20.144 414.514 20.144ZM414.514 19.256C415.002 19.256 415.438 19.12 415.822 18.848C416.214 18.568 416.518 18.172 416.734 17.66C416.958 17.14 417.07 16.52 417.07 15.8C417.07 15.08 416.958 14.464 416.734 13.952C416.518 13.44 416.214 13.048 415.822 12.776C415.438 12.496 415.002 12.356 414.514 12.356C414.018 12.356 413.578 12.496 413.194 12.776C412.81 13.048 412.506 13.44 412.282 13.952C412.058 14.464 411.946 15.08 411.946 15.8C411.946 16.52 412.058 17.14 412.282 17.66C412.506 18.172 412.81 18.568 413.194 18.848C413.578 19.12 414.018 19.256 414.514 19.256ZM421.119 15.5C420.759 15.5 420.431 15.42 420.135 15.26C419.847 15.092 419.619 14.86 419.451 14.564C419.283 14.26 419.199 13.9 419.199 13.484C419.199 13.068 419.283 12.712 419.451 12.416C419.627 12.112 419.859 11.88 420.147 11.72C420.443 11.552 420.771 11.468 421.131 11.468C421.491 11.468 421.815 11.552 422.103 11.72C422.391 11.88 422.619 12.112 422.787 12.416C422.955 12.712 423.039 13.068 423.039 13.484C423.039 13.9 422.951 14.26 422.775 14.564C422.607 14.86 422.379 15.092 422.091 15.26C421.803 15.42 421.479 15.5 421.119 15.5ZM420.375 20L425.259 11.6H426.267L421.383 20H420.375ZM421.119 14.72C421.399 14.72 421.643 14.616 421.851 14.408C422.067 14.2 422.175 13.892 422.175 13.484C422.175 13.068 422.071 12.756 421.863 12.548C421.655 12.332 421.411 12.224 421.131 12.224C420.851 12.224 420.599 12.332 420.375 12.548C420.159 12.756 420.051 13.068 420.051 13.484C420.051 13.892 420.159 14.2 420.375 14.408C420.591 14.616 420.839 14.72 421.119 14.72ZM425.607 20.144C425.247 20.144 424.919 20.064 424.623 19.904C424.335 19.736 424.107 19.504 423.939 19.208C423.771 18.904 423.687 18.544 423.687 18.128C423.687 17.712 423.771 17.356 423.939 17.06C424.115 16.756 424.347 16.524 424.635 16.364C424.923 16.196 425.247 16.112 425.607 16.112C425.967 16.112 426.291 16.196 426.579 16.364C426.867 16.524 427.095 16.756 427.263 17.06C427.431 17.356 427.515 17.712 427.515 18.128C427.515 18.544 427.431 18.904 427.263 19.208C427.095 19.504 426.867 19.736 426.579 19.904C426.291 20.064 425.967 20.144 425.607 20.144ZM425.595 19.364C425.883 19.364 426.131 19.26 426.339 19.052C426.555 18.844 426.663 18.536 426.663 18.128C426.663 17.712 426.559 17.4 426.351 17.192C426.143 16.984 425.895 16.88 425.607 16.88C425.327 16.88 425.079 16.984 424.863 17.192C424.647 17.4 424.539 17.712 424.539 18.128C424.539 18.536 424.643 18.844 424.851 19.052C425.067 19.26 425.315 19.364 425.595 19.364Z" fill="white" fill-opacity="0.87"/>
<rect y="32" width="440" height="56" rx="10" fill="#1E1E1E"/>
<rect x="6" y="38" width="212" height="44" rx="6" fill="#86B3FC" fill-opacity="0.24"/>
<path d="M85.9637 61.8053C85.5997 61.0801 85.0441 60.4714 84.3588 60.0469C83.6734 59.6223 82.8852 59.3986 82.0818 59.4006H76.5854C76.57 59.4006 76.5547 59.4006 76.5393 59.4053C76.5239 59.4099 76.5086 59.4006 76.4932 59.4006C75.9563 59.4016 75.4282 59.2631 74.9593 58.9984C74.4903 58.7337 74.0963 58.3517 73.8149 57.8887C74.0816 57.7184 74.3013 57.4824 74.4536 57.2028C74.6059 56.9232 74.6858 56.6091 74.6858 56.2898C74.6858 55.9705 74.6059 55.6564 74.4536 55.3768C74.3013 55.0972 74.0816 54.8612 73.8149 54.6908C74.0965 54.2278 74.4906 53.8457 74.9597 53.581C75.4287 53.3163 75.957 53.1779 76.494 53.1789C76.5093 53.1789 76.5247 53.1789 76.5401 53.1742C76.5554 53.1696 76.5708 53.1789 76.5861 53.1789H83.9874C84.1281 53.6108 84.4162 53.9779 84.7999 54.2142C85.1837 54.4506 85.6381 54.5408 86.0816 54.4686C86.525 54.3965 86.9287 54.1667 87.22 53.8206C87.5113 53.4744 87.6714 53.0345 87.6714 52.5797C87.6714 52.1249 87.5113 51.6849 87.22 51.3388C86.9287 50.9926 86.525 50.7629 86.0816 50.6907C85.6381 50.6186 85.1837 50.7088 84.7999 50.9451C84.4162 51.1815 84.1281 51.5485 83.9874 51.9805H76.5854C76.57 51.9805 76.5547 51.9805 76.5393 51.9851C76.5239 51.9898 76.5086 51.9805 76.4932 51.9805C75.6898 51.9785 74.9016 52.2022 74.2163 52.6267C73.5309 53.0513 72.9753 53.66 72.6113 54.3851C72.1308 54.413 71.679 54.6258 71.3485 54.9801C71.0181 55.3344 70.834 55.8032 70.834 56.2905C70.834 56.7778 71.0181 57.2467 71.3485 57.601C71.679 57.9553 72.1308 58.1681 72.6113 58.1959C72.9754 58.921 73.5311 59.5295 74.2164 59.9539C74.9017 60.3783 75.6899 60.6019 76.4932 60.5998C76.5086 60.5998 76.5239 60.5998 76.5393 60.5952C76.5547 60.5905 76.57 60.5998 76.5854 60.5998H82.0818C82.6188 60.5986 83.1472 60.737 83.6162 61.0017C84.0853 61.2664 84.4794 61.6486 84.7609 62.1117C84.494 62.282 84.2741 62.5179 84.1217 62.7975C83.9693 63.0771 83.8893 63.3913 83.8893 63.7107C83.8893 64.0301 83.9693 64.3442 84.1217 64.6239C84.2741 64.9035 84.494 65.1394 84.7609 65.3097C84.4795 65.7726 84.0854 66.1547 83.6165 66.4194C83.1476 66.6841 82.6194 66.8225 82.0826 66.8215C82.0672 66.8215 82.0519 66.8215 82.0365 66.8262C82.0211 66.8309 82.0058 66.8215 81.9904 66.8215H74.5876C74.4469 66.3898 74.1589 66.023 73.7753 65.7868C73.3917 65.5506 72.9376 65.4605 72.4943 65.5326C72.051 65.6047 71.6476 65.8344 71.3564 66.1804C71.0652 66.5264 70.9052 66.9662 70.9052 67.4208C70.9052 67.8754 71.0652 68.3151 71.3564 68.6611C71.6476 69.0071 72.051 69.2368 72.4943 69.3089C72.9376 69.3811 73.3917 69.291 73.7753 69.0548C74.1589 68.8186 74.4469 68.4517 74.5876 68.02H81.9896C82.005 68.02 82.0204 68.02 82.0357 68.0153C82.0511 68.0107 82.0665 68.02 82.0818 68.02C82.8851 68.022 83.6732 67.7983 84.3585 67.3739C85.0439 66.9496 85.5995 66.3411 85.9637 65.6161C86.4442 65.5883 86.896 65.3754 87.2265 65.0211C87.5569 64.6669 87.741 64.198 87.741 63.7107C87.741 63.2234 87.5569 62.7545 87.2265 62.4003C86.896 62.046 86.4442 61.8331 85.9637 61.8053ZM85.095 52.5808C85.0924 52.4365 85.1323 52.2946 85.2097 52.1733C85.287 52.052 85.3982 51.9568 85.5292 51.8997C85.6602 51.8426 85.805 51.8263 85.9451 51.8529C86.0853 51.8794 86.2145 51.9476 86.3162 52.0488C86.4179 52.1499 86.4877 52.2794 86.5164 52.4208C86.5452 52.5622 86.5318 52.7091 86.4778 52.8428C86.4239 52.9764 86.3319 53.0908 86.2135 53.1713C86.0951 53.2518 85.9558 53.2948 85.8132 53.2948C85.6245 53.2962 85.443 53.2219 85.3084 53.0881C85.1738 52.9543 85.097 52.7719 85.095 52.5808ZM72.0444 56.2905C72.0419 56.1462 72.0818 56.0043 72.1591 55.883C72.2364 55.7617 72.3476 55.6664 72.4786 55.6094C72.6096 55.5523 72.7544 55.536 72.8945 55.5626C73.0347 55.5891 73.1639 55.6573 73.2656 55.7584C73.3674 55.8596 73.4371 55.9891 73.4659 56.1305C73.4946 56.2719 73.4812 56.4188 73.4273 56.5524C73.3733 56.6861 73.2813 56.8004 73.1629 56.8809C73.0446 56.9615 72.9052 57.0045 72.7626 57.0045C72.5738 57.0061 72.3921 56.9319 72.2573 56.798C72.1225 56.6642 72.0465 56.4817 72.0444 56.2905ZM73.4808 67.4188C73.4834 67.5632 73.4435 67.705 73.3661 67.8264C73.2888 67.9477 73.1776 68.0429 73.0466 68.1C72.9156 68.1571 72.7708 68.1734 72.6307 68.1468C72.4905 68.1203 72.3613 68.0521 72.2596 67.9509C72.1578 67.8498 72.0881 67.7202 72.0594 67.5788C72.0306 67.4374 72.044 67.2906 72.098 67.1569C72.1519 67.0233 72.2439 66.9089 72.3623 66.8284C72.4807 66.7479 72.62 66.7049 72.7626 66.7049C72.9513 66.7034 73.1328 66.7778 73.2674 66.9116C73.402 67.0454 73.4787 67.2278 73.4808 67.4188ZM85.8132 64.4231C85.6743 64.4205 85.5393 64.3764 85.4251 64.2964C85.3108 64.2164 85.2225 64.104 85.1711 63.9733C85.1198 63.8427 85.1076 63.6995 85.1363 63.5619C85.165 63.4243 85.2331 63.2983 85.3322 63.1998C85.4314 63.1013 85.557 63.0346 85.6934 63.0081C85.8298 62.9816 85.9709 62.9965 86.099 63.0509C86.2271 63.1053 86.3364 63.1968 86.4134 63.3139C86.4903 63.431 86.5313 63.5685 86.5313 63.7091C86.5295 63.9003 86.4529 64.0829 86.3182 64.2169C86.1836 64.3509 86.002 64.4245 85.8132 64.4231Z" fill="#86B3FC"/>
<path d="M98.136 65V53.8H100.136L103.928 61.256L107.704 53.8H109.704V65H108.008V56.728L104.584 63.4H103.272L99.832 56.744V65H98.136ZM112.9 55.56C112.58 55.56 112.313 55.464 112.1 55.272C111.897 55.0693 111.796 54.8187 111.796 54.52C111.796 54.2213 111.897 53.976 112.1 53.784C112.313 53.5813 112.58 53.48 112.9 53.48C113.22 53.48 113.481 53.5813 113.684 53.784C113.897 53.976 114.004 54.2213 114.004 54.52C114.004 54.8187 113.897 55.0693 113.684 55.272C113.481 55.464 113.22 55.56 112.9 55.56ZM112.052 65V57.064H113.748V65H112.052ZM119.179 65.192C118.176 65.192 117.349 64.9467 116.699 64.456C116.048 63.9653 115.675 63.3147 115.579 62.504H117.291C117.376 62.8667 117.579 63.1813 117.899 63.448C118.219 63.704 118.64 63.832 119.163 63.832C119.675 63.832 120.048 63.7253 120.283 63.512C120.517 63.2987 120.635 63.0533 120.635 62.776C120.635 62.3707 120.469 62.0987 120.139 61.96C119.819 61.8107 119.371 61.6773 118.795 61.56C118.347 61.464 117.899 61.336 117.451 61.176C117.013 61.016 116.645 60.792 116.347 60.504C116.059 60.2053 115.915 59.8053 115.915 59.304C115.915 58.6107 116.181 58.0347 116.715 57.576C117.248 57.1067 117.995 56.872 118.955 56.872C119.84 56.872 120.555 57.0853 121.099 57.512C121.653 57.9387 121.979 58.5413 122.075 59.32H120.443C120.389 58.9787 120.229 58.712 119.963 58.52C119.707 58.328 119.36 58.232 118.923 58.232C118.496 58.232 118.165 58.3227 117.931 58.504C117.696 58.6747 117.579 58.8987 117.579 59.176C117.579 59.4533 117.739 59.672 118.059 59.832C118.389 59.992 118.821 60.136 119.355 60.264C119.888 60.3813 120.379 60.52 120.827 60.68C121.285 60.8293 121.653 61.0533 121.931 61.352C122.208 61.6507 122.347 62.088 122.347 62.664C122.357 63.3893 122.075 63.992 121.499 64.472C120.933 64.952 120.16 65.192 119.179 65.192ZM127.39 65.192C126.387 65.192 125.561 64.9467 124.91 64.456C124.259 63.9653 123.886 63.3147 123.79 62.504H125.502C125.587 62.8667 125.79 63.1813 126.11 63.448C126.43 63.704 126.851 63.832 127.374 63.832C127.886 63.832 128.259 63.7253 128.494 63.512C128.729 63.2987 128.846 63.0533 128.846 62.776C128.846 62.3707 128.681 62.0987 128.35 61.96C128.03 61.8107 127.582 61.6773 127.006 61.56C126.558 61.464 126.11 61.336 125.662 61.176C125.225 61.016 124.857 60.792 124.558 60.504C124.27 60.2053 124.126 59.8053 124.126 59.304C124.126 58.6107 124.393 58.0347 124.926 57.576C125.459 57.1067 126.206 56.872 127.166 56.872C128.051 56.872 128.766 57.0853 129.31 57.512C129.865 57.9387 130.19 58.5413 130.286 59.32H128.654C128.601 58.9787 128.441 58.712 128.174 58.52C127.918 58.328 127.571 58.232 127.134 58.232C126.707 58.232 126.377 58.3227 126.142 58.504C125.907 58.6747 125.79 58.8987 125.79 59.176C125.79 59.4533 125.95 59.672 126.27 59.832C126.601 59.992 127.033 60.136 127.566 60.264C128.099 60.3813 128.59 60.52 129.038 60.68C129.497 60.8293 129.865 61.0533 130.142 61.352C130.419 61.6507 130.558 62.088 130.558 62.664C130.569 63.3893 130.286 63.992 129.71 64.472C129.145 64.952 128.371 65.192 127.39 65.192ZM133.394 55.56C133.074 55.56 132.807 55.464 132.594 55.272C132.391 55.0693 132.29 54.8187 132.29 54.52C132.29 54.2213 132.391 53.976 132.594 53.784C132.807 53.5813 133.074 53.48 133.394 53.48C133.714 53.48 133.975 53.5813 134.178 53.784C134.391 53.976 134.498 54.2213 134.498 54.52C134.498 54.8187 134.391 55.0693 134.178 55.272C133.975 55.464 133.714 55.56 133.394 55.56ZM132.546 65V57.064H134.242V65H132.546ZM140.216 65.192C139.459 65.192 138.776 65.0213 138.168 64.68C137.571 64.328 137.096 63.8427 136.744 63.224C136.392 62.5947 136.216 61.864 136.216 61.032C136.216 60.2 136.392 59.4747 136.744 58.856C137.107 58.2267 137.592 57.7413 138.2 57.4C138.808 57.048 139.486 56.872 140.232 56.872C140.99 56.872 141.667 57.048 142.264 57.4C142.872 57.7413 143.352 58.2267 143.704 58.856C144.067 59.4747 144.248 60.2 144.248 61.032C144.248 61.864 144.067 62.5947 143.704 63.224C143.352 63.8427 142.872 64.328 142.264 64.68C141.656 65.0213 140.974 65.192 140.216 65.192ZM140.216 63.736C140.622 63.736 140.995 63.6347 141.336 63.432C141.688 63.2293 141.971 62.9307 142.184 62.536C142.398 62.1307 142.504 61.6293 142.504 61.032C142.504 60.4347 142.398 59.9387 142.184 59.544C141.982 59.1387 141.704 58.8347 141.352 58.632C141.011 58.4293 140.638 58.328 140.232 58.328C139.827 58.328 139.448 58.4293 139.096 58.632C138.755 58.8347 138.478 59.1387 138.264 59.544C138.051 59.9387 137.944 60.4347 137.944 61.032C137.944 61.6293 138.051 62.1307 138.264 62.536C138.478 62.9307 138.755 63.2293 139.096 63.432C139.438 63.6347 139.811 63.736 140.216 63.736ZM146.107 65V57.064H147.611L147.739 58.456C147.984 57.9653 148.341 57.5813 148.811 57.304C149.291 57.016 149.84 56.872 150.459 56.872C151.419 56.872 152.171 57.1707 152.715 57.768C153.269 58.3653 153.547 59.256 153.547 60.44V65H151.867V60.616C151.867 59.08 151.237 58.312 149.979 58.312C149.349 58.312 148.827 58.536 148.411 58.984C148.005 59.432 147.803 60.072 147.803 60.904V65H146.107Z" fill="#86B3FC"/>
<rect x="222" y="38" width="212" height="44" rx="6" fill="#363636"/>
<path d="M308.733 50.6665C305.604 50.6665 303.133 53.2352 303.133 56.4892C303.133 62.3118 308.733 69.3332 308.733 69.3332C308.733 69.3332 314.333 62.3118 314.333 56.4892C314.333 53.2354 311.863 50.6665 308.733 50.6665ZM308.733 60.0855C306.756 60.0855 305.274 58.373 305.274 56.4892C305.274 54.4341 306.756 52.8928 308.733 52.8928C310.545 52.8928 312.192 54.4341 312.192 56.4892C312.192 58.373 310.545 60.0855 308.733 60.0855Z" fill="white" fill-opacity="0.87"/>
<path d="M332.5 65.192C331.444 65.192 330.521 64.952 329.732 64.472C328.943 63.992 328.329 63.32 327.892 62.456C327.455 61.592 327.236 60.584 327.236 59.432C327.236 58.2907 327.46 57.2827 327.908 56.408C328.356 55.5333 328.991 54.8507 329.812 54.36C330.644 53.8587 331.625 53.608 332.756 53.608C334.036 53.608 335.103 53.9173 335.956 54.536C336.809 55.1547 337.364 56.008 337.62 57.096H335.7C335.529 56.4987 335.193 56.0293 334.692 55.688C334.191 55.3467 333.545 55.176 332.756 55.176C331.583 55.176 330.66 55.5547 329.988 56.312C329.316 57.0693 328.98 58.1147 328.98 59.448C328.98 60.7813 329.311 61.8213 329.972 62.568C330.633 63.3147 331.513 63.688 332.612 63.688C333.721 63.688 334.553 63.3733 335.108 62.744C335.673 62.1147 336.004 61.2773 336.1 60.232H333.06V58.92H337.812V65H336.26L336.116 63.352C335.743 63.9387 335.273 64.392 334.708 64.712C334.143 65.032 333.407 65.192 332.5 65.192ZM342.518 65V55.176H339.206V53.8H347.51V55.176H344.214V65H342.518ZM349.122 65V53.8H350.818V63.656H355.906V65H349.122Z" fill="white" fill-opacity="0.87"/>
</g>
<defs>
<clipPath id="clip0_2424_40726">
<rect width="440" height="88" rx="10" fill="white"/>
</clipPath>
</defs>
</svg>
