<svg width="204" height="88" viewBox="0 0 204 88" fill="none" xmlns="http://www.w3.org/2000/svg">
<rect width="204" height="88" rx="10" fill="#1E1E1E"/>
<rect x="6" y="6" width="62" height="34" rx="6" fill="#232323"/>
<path fill-rule="evenodd" clip-rule="evenodd" d="M31.9216 20.6004C32.8092 20.6004 33.7771 21.0795 34.3488 21.7947L36.4355 29.6702L29.6044 21.6693C30.184 21.0252 31.0862 20.6004 31.9216 20.6004ZM36.9939 29.6928L34.8849 21.7325C35.4963 20.9839 36.2045 20.6006 36.9939 20.6006C37.7833 20.6006 38.4916 20.9839 39.103 21.7325L36.9939 29.6928ZM44.3837 21.6694L37.5526 29.6703L39.6393 21.7948C40.211 21.0796 41.1788 20.6005 42.0664 20.6005C42.9019 20.6005 43.8041 21.0252 44.3837 21.6694ZM44.9886 21.7291C44.995 21.708 44.9988 21.6867 44.9996 21.6654C45.0059 21.5133 44.9427 21.3383 44.9069 21.1914C44.8682 21.0333 44.8245 20.8762 44.7759 20.721C44.6798 20.4127 44.5641 20.1105 44.4306 19.8168C44.1664 19.2344 43.8311 18.6844 43.437 18.1809C43.0443 17.6793 42.5936 17.2232 42.0971 16.8238C41.6 16.4237 41.057 16.0802 40.4814 15.8033C39.9021 15.5244 39.2899 15.3132 38.6607 15.1777C38.1133 15.06 37.5538 15 36.994 15C36.3434 15 35.6939 15.0814 35.063 15.2393C34.4402 15.3952 33.8363 15.6265 33.2669 15.9233C32.7014 16.2183 32.1701 16.5787 31.6859 16.9942C31.2026 17.4089 30.7664 17.879 30.3906 18.3933C30.0126 18.9098 29.6952 19.4713 29.4503 20.0627C29.3266 20.3618 29.2215 20.6687 29.1356 20.981C29.0923 21.1387 29.0544 21.2973 29.0213 21.4576C28.9834 21.6397 28.9861 21.7723 29.1131 21.9142C29.1356 21.9393 29.1566 21.9667 29.1785 21.9925C29.2346 22.0582 29.2907 22.1236 29.3464 22.1891C29.5163 22.3883 29.6866 22.5874 29.8566 22.7865C30.0895 23.0596 30.3225 23.3324 30.5555 23.6055C30.8343 23.9317 31.1129 24.2582 31.3917 24.5846L32.3129 25.6637C32.6309 26.0362 32.9491 26.4088 33.2674 26.7813C33.5792 27.1468 33.8911 27.5119 34.2029 27.877C34.4909 28.2146 34.779 28.552 35.0673 28.8896C35.3145 29.1793 35.5617 29.4689 35.8092 29.7582C35.9979 29.9796 36.187 30.2009 36.376 30.422C36.4889 30.5548 36.6024 30.6873 36.7158 30.8202C36.7917 30.9092 36.8643 30.9989 36.9921 31C37.1556 31.001 37.2465 30.8503 37.3411 30.7399C37.4738 30.5844 37.6068 30.4287 37.7394 30.2732C37.941 30.0372 38.1423 29.8014 38.3435 29.5657C38.5969 29.2689 38.8502 28.972 39.1039 28.675C39.393 28.3364 39.6821 27.9975 39.9712 27.6591C40.2801 27.2975 40.5885 26.9363 40.8971 26.5747L41.8317 25.4802C42.1297 25.131 42.4278 24.7819 42.7264 24.4325C42.9946 24.1181 43.2627 23.804 43.5313 23.4896C43.7534 23.2293 43.9754 22.9692 44.1979 22.7087C44.3576 22.5217 44.5175 22.3348 44.6768 22.1478C44.7734 22.0347 44.9438 21.8825 44.9886 21.7291Z" fill="white" fill-opacity="0.25"/>
<rect x="72" y="6" width="126" height="34" rx="6" fill="#232323"/>
<rect x="72.5" y="6.5" width="125" height="33" rx="5.5" stroke="#A55226" stroke-opacity="0.6"/>
<path d="M121.631 28.168C120.707 28.168 119.9 27.958 119.209 27.538C118.519 27.118 117.982 26.5347 117.599 25.788C117.217 25.032 117.025 24.1547 117.025 23.156C117.025 22.148 117.221 21.2613 117.613 20.496C118.015 19.7213 118.579 19.1193 119.307 18.69C120.045 18.2513 120.917 18.032 121.925 18.032C123.073 18.032 124.025 18.3073 124.781 18.858C125.537 19.4087 126.027 20.1693 126.251 21.14H124.249C124.1 20.6827 123.829 20.328 123.437 20.076C123.045 19.8147 122.541 19.684 121.925 19.684C120.945 19.684 120.189 19.9967 119.657 20.622C119.125 21.238 118.859 22.0873 118.859 23.17C118.859 24.2527 119.121 25.0927 119.643 25.69C120.175 26.278 120.894 26.572 121.799 26.572C122.686 26.572 123.353 26.334 123.801 25.858C124.259 25.3727 124.534 24.738 124.627 23.954H122.149V22.61H126.433V28H124.781L124.641 26.712C124.324 27.1787 123.927 27.538 123.451 27.79C122.975 28.042 122.369 28.168 121.631 28.168ZM130.478 28V19.642H127.622V18.2H135.14V19.642H132.27V28H130.478ZM139.712 28.168C138.993 28.168 138.358 28.0467 137.808 27.804C137.257 27.552 136.823 27.1973 136.506 26.74C136.188 26.2733 136.025 25.7087 136.016 25.046H137.906C137.924 25.5033 138.088 25.8907 138.396 26.208C138.713 26.516 139.147 26.67 139.698 26.67C140.174 26.67 140.552 26.558 140.832 26.334C141.112 26.1007 141.252 25.7927 141.252 25.41C141.252 25.0087 141.126 24.696 140.874 24.472C140.631 24.248 140.304 24.066 139.894 23.926C139.483 23.786 139.044 23.6367 138.578 23.478C137.822 23.2167 137.243 22.8807 136.842 22.47C136.45 22.0593 136.254 21.5133 136.254 20.832C136.244 20.2533 136.38 19.7587 136.66 19.348C136.949 18.928 137.341 18.606 137.836 18.382C138.33 18.1487 138.9 18.032 139.544 18.032C140.197 18.032 140.771 18.1487 141.266 18.382C141.77 18.6153 142.162 18.942 142.442 19.362C142.731 19.782 142.885 20.2813 142.904 20.86H140.986C140.976 20.5147 140.841 20.2113 140.58 19.95C140.328 19.6793 139.973 19.544 139.516 19.544C139.124 19.5347 138.792 19.6327 138.522 19.838C138.26 20.034 138.13 20.3233 138.13 20.706C138.13 21.0327 138.232 21.294 138.438 21.49C138.643 21.6767 138.923 21.8353 139.278 21.966C139.632 22.0967 140.038 22.2367 140.496 22.386C140.981 22.554 141.424 22.75 141.826 22.974C142.227 23.198 142.549 23.4967 142.792 23.87C143.034 24.234 143.156 24.7053 143.156 25.284C143.156 25.7973 143.025 26.2733 142.764 26.712C142.502 27.1507 142.115 27.5053 141.602 27.776C141.088 28.0373 140.458 28.168 139.712 28.168ZM144.11 28L147.694 18.2H149.71L153.294 28H151.39L150.606 25.732H146.784L145.986 28H144.11ZM147.274 24.332H150.116L148.688 20.258L147.274 24.332Z" fill="white" fill-opacity="0.6"/>
<rect x="6" y="46" width="62" height="36" rx="6" fill="#4E9DEC" fill-opacity="0.1"/>
<rect x="6.5" y="46.5" width="61" height="35" rx="5.5" stroke="#499CED" stroke-opacity="0.75"/>
<path d="M20.2701 69V59.2H23.8681C24.6521 59.2 25.2961 59.3353 25.8001 59.606C26.3134 59.8673 26.6961 60.2267 26.9481 60.684C27.2001 61.132 27.3261 61.6313 27.3261 62.182C27.3261 62.7793 27.1674 63.3253 26.8501 63.82C26.5421 64.3147 26.0568 64.674 25.3941 64.898L27.4241 69H25.3661L23.5461 65.136H22.0621V69H20.2701ZM22.0621 63.82H23.7561C24.3534 63.82 24.7921 63.6753 25.0721 63.386C25.3521 63.0967 25.4921 62.714 25.4921 62.238C25.4921 61.7713 25.3521 61.398 25.0721 61.118C24.8014 60.838 24.3581 60.698 23.7421 60.698H22.0621V63.82ZM31.2958 69V60.642H28.4398V59.2H35.9578V60.642H33.0878V69H31.2958ZM37.3063 69V59.2H40.6523C41.8003 59.2 42.7429 59.4053 43.4803 59.816C44.2269 60.2173 44.7776 60.7867 45.1323 61.524C45.4963 62.252 45.6783 63.1107 45.6783 64.1C45.6783 65.0893 45.4963 65.9527 45.1323 66.69C44.7776 67.418 44.2269 67.9873 43.4803 68.398C42.7429 68.7993 41.8003 69 40.6523 69H37.3063ZM39.0983 67.46H40.5683C41.3896 67.46 42.0383 67.3293 42.5143 67.068C42.9903 66.7973 43.3309 66.4147 43.5363 65.92C43.7416 65.416 43.8443 64.8093 43.8443 64.1C43.8443 63.4 43.7416 62.798 43.5363 62.294C43.3309 61.79 42.9903 61.4027 42.5143 61.132C42.0383 60.8613 41.3896 60.726 40.5683 60.726H39.0983V67.46ZM50.6264 69.168C49.9077 69.168 49.273 69.0467 48.7224 68.804C48.1717 68.552 47.7377 68.1973 47.4204 67.74C47.103 67.2733 46.9397 66.7087 46.9304 66.046H48.8204C48.839 66.5033 49.0024 66.8907 49.3104 67.208C49.6277 67.516 50.0617 67.67 50.6124 67.67C51.0884 67.67 51.4664 67.558 51.7464 67.334C52.0264 67.1007 52.1664 66.7927 52.1664 66.41C52.1664 66.0087 52.0404 65.696 51.7884 65.472C51.5457 65.248 51.219 65.066 50.8084 64.926C50.3977 64.786 49.959 64.6367 49.4924 64.478C48.7364 64.2167 48.1577 63.8807 47.7564 63.47C47.3644 63.0593 47.1684 62.5133 47.1684 61.832C47.159 61.2533 47.2944 60.7587 47.5744 60.348C47.8637 59.928 48.2557 59.606 48.7504 59.382C49.245 59.1487 49.8144 59.032 50.4584 59.032C51.1117 59.032 51.6857 59.1487 52.1804 59.382C52.6844 59.6153 53.0764 59.942 53.3564 60.362C53.6457 60.782 53.7997 61.2813 53.8184 61.86H51.9004C51.891 61.5147 51.7557 61.2113 51.4944 60.95C51.2424 60.6793 50.8877 60.544 50.4304 60.544C50.0384 60.5347 49.707 60.6327 49.4364 60.838C49.175 61.034 49.0444 61.3233 49.0444 61.706C49.0444 62.0327 49.147 62.294 49.3524 62.49C49.5577 62.6767 49.8377 62.8353 50.1924 62.966C50.547 63.0967 50.953 63.2367 51.4104 63.386C51.8957 63.554 52.339 63.75 52.7404 63.974C53.1417 64.198 53.4637 64.4967 53.7064 64.87C53.949 65.234 54.0704 65.7053 54.0704 66.284C54.0704 66.7973 53.9397 67.2733 53.6784 67.712C53.417 68.1507 53.0297 68.5053 52.5164 68.776C52.003 69.0373 51.373 69.168 50.6264 69.168Z" fill="#519AE1"/>
<rect x="72.5" y="46.5" width="125" height="35" rx="5.5" fill="#F04438" fill-opacity="0.15"/>
<rect x="72.5" y="46.5" width="125" height="35" rx="5.5" stroke="#F04438"/>
<path d="M121.404 69.168C120.686 69.168 120.051 69.0467 119.5 68.804C118.95 68.552 118.516 68.1973 118.198 67.74C117.881 67.2733 117.718 66.7087 117.708 66.046H119.598C119.617 66.5033 119.78 66.8907 120.088 67.208C120.406 67.516 120.84 67.67 121.39 67.67C121.866 67.67 122.244 67.558 122.524 67.334C122.804 67.1007 122.944 66.7927 122.944 66.41C122.944 66.0087 122.818 65.696 122.566 65.472C122.324 65.248 121.997 65.066 121.586 64.926C121.176 64.786 120.737 64.6367 120.27 64.478C119.514 64.2167 118.936 63.8807 118.534 63.47C118.142 63.0593 117.946 62.5133 117.946 61.832C117.937 61.2533 118.072 60.7587 118.352 60.348C118.642 59.928 119.034 59.606 119.528 59.382C120.023 59.1487 120.592 59.032 121.236 59.032C121.89 59.032 122.464 59.1487 122.958 59.382C123.462 59.6153 123.854 59.942 124.134 60.362C124.424 60.782 124.578 61.2813 124.596 61.86H122.678C122.669 61.5147 122.534 61.2113 122.272 60.95C122.02 60.6793 121.666 60.544 121.208 60.544C120.816 60.5347 120.485 60.6327 120.214 60.838C119.953 61.034 119.822 61.3233 119.822 61.706C119.822 62.0327 119.925 62.294 120.13 62.49C120.336 62.6767 120.616 62.8353 120.97 62.966C121.325 63.0967 121.731 63.2367 122.188 63.386C122.674 63.554 123.117 63.75 123.518 63.974C123.92 64.198 124.242 64.4967 124.484 64.87C124.727 65.234 124.848 65.7053 124.848 66.284C124.848 66.7973 124.718 67.2733 124.456 67.712C124.195 68.1507 123.808 68.5053 123.294 68.776C122.781 69.0373 122.151 69.168 121.404 69.168ZM128.592 69V60.642H125.736V59.2H133.254V60.642H130.384V69H128.592ZM138.839 69.168C137.859 69.168 137 68.9533 136.263 68.524C135.535 68.0947 134.961 67.502 134.541 66.746C134.13 65.9807 133.925 65.0987 133.925 64.1C133.925 63.1013 134.13 62.224 134.541 61.468C134.961 60.7027 135.535 60.1053 136.263 59.676C137 59.2467 137.859 59.032 138.839 59.032C139.809 59.032 140.663 59.2467 141.401 59.676C142.138 60.1053 142.712 60.7027 143.123 61.468C143.533 62.224 143.739 63.1013 143.739 64.1C143.739 65.0987 143.533 65.9807 143.123 66.746C142.712 67.502 142.138 68.0947 141.401 68.524C140.663 68.9533 139.809 69.168 138.839 69.168ZM138.839 67.558C139.772 67.558 140.514 67.25 141.065 66.634C141.625 66.018 141.905 65.1733 141.905 64.1C141.905 63.0267 141.625 62.182 141.065 61.566C140.514 60.95 139.772 60.642 138.839 60.642C137.905 60.642 137.159 60.95 136.599 61.566C136.039 62.182 135.759 63.0267 135.759 64.1C135.759 65.1733 136.039 66.018 136.599 66.634C137.159 67.25 137.905 67.558 138.839 67.558ZM145.342 69V59.2H148.968C149.752 59.2 150.401 59.3307 150.914 59.592C151.427 59.8533 151.81 60.2127 152.062 60.67C152.314 61.1273 152.44 61.6407 152.44 62.21C152.44 62.7513 152.319 63.2507 152.076 63.708C151.833 64.156 151.455 64.52 150.942 64.8C150.429 65.0707 149.771 65.206 148.968 65.206H147.134V69H145.342ZM147.134 63.75H148.856C149.481 63.75 149.929 63.6147 150.2 63.344C150.48 63.064 150.62 62.686 150.62 62.21C150.62 61.7247 150.48 61.3467 150.2 61.076C149.929 60.796 149.481 60.656 148.856 60.656H147.134V63.75Z" fill="#F04438"/>
</svg>
