<svg width="440" height="48" viewBox="0 0 440 48" fill="none" xmlns="http://www.w3.org/2000/svg">
<rect width="440" height="48" rx="10" fill="#1E1E1E"/>
<path d="M13.184 29V17.8H14.752L18.784 25.608L22.784 17.8H24.368V29H23.024V20.2L19.28 27.4H18.272L14.528 20.216V29H13.184ZM27.4909 19.304C27.2242 19.304 27.0002 19.2187 26.8189 19.048C26.6482 18.8667 26.5629 18.6427 26.5629 18.376C26.5629 18.12 26.6482 17.9067 26.8189 17.736C27.0002 17.5653 27.2242 17.48 27.4909 17.48C27.7469 17.48 27.9655 17.5653 28.1469 17.736C28.3282 17.9067 28.4189 18.12 28.4189 18.376C28.4189 18.6427 28.3282 18.8667 28.1469 19.048C27.9655 19.2187 27.7469 19.304 27.4909 19.304ZM26.8189 29V21.064H28.1629V29H26.8189ZM33.567 29.192C32.6177 29.192 31.8283 28.952 31.199 28.472C30.5697 27.992 30.2017 27.3413 30.095 26.52H31.471C31.5563 26.936 31.775 27.2987 32.127 27.608C32.4897 27.9067 32.975 28.056 33.583 28.056C34.1483 28.056 34.5643 27.9387 34.831 27.704C35.0977 27.4587 35.231 27.1707 35.231 26.84C35.231 26.36 35.055 26.04 34.703 25.88C34.3617 25.72 33.8763 25.576 33.247 25.448C32.8203 25.3627 32.3937 25.24 31.967 25.08C31.5403 24.92 31.183 24.696 30.895 24.408C30.607 24.1093 30.463 23.72 30.463 23.24C30.463 22.5467 30.719 21.9813 31.231 21.544C31.7537 21.096 32.4577 20.872 33.343 20.872C34.1857 20.872 34.8737 21.0853 35.407 21.512C35.951 21.928 36.2657 22.5253 36.351 23.304H35.023C34.9697 22.8987 34.7937 22.584 34.495 22.36C34.207 22.1253 33.8177 22.008 33.327 22.008C32.847 22.008 32.4737 22.1093 32.207 22.312C31.951 22.5147 31.823 22.7813 31.823 23.112C31.823 23.432 31.9883 23.6827 32.319 23.864C32.6603 24.0453 33.119 24.2 33.695 24.328C34.1857 24.4347 34.6497 24.568 35.087 24.728C35.535 24.8773 35.8977 25.1067 36.175 25.416C36.463 25.7147 36.607 26.152 36.607 26.728C36.6177 27.4427 36.3457 28.0347 35.791 28.504C35.247 28.9627 34.5057 29.192 33.567 29.192ZM41.591 29.192C40.6417 29.192 39.8523 28.952 39.223 28.472C38.5937 27.992 38.2257 27.3413 38.119 26.52H39.495C39.5803 26.936 39.799 27.2987 40.151 27.608C40.5137 27.9067 40.999 28.056 41.607 28.056C42.1723 28.056 42.5883 27.9387 42.855 27.704C43.1217 27.4587 43.255 27.1707 43.255 26.84C43.255 26.36 43.079 26.04 42.727 25.88C42.3857 25.72 41.9003 25.576 41.271 25.448C40.8443 25.3627 40.4177 25.24 39.991 25.08C39.5643 24.92 39.207 24.696 38.919 24.408C38.631 24.1093 38.487 23.72 38.487 23.24C38.487 22.5467 38.743 21.9813 39.255 21.544C39.7777 21.096 40.4817 20.872 41.367 20.872C42.2097 20.872 42.8977 21.0853 43.431 21.512C43.975 21.928 44.2897 22.5253 44.375 23.304H43.047C42.9937 22.8987 42.8177 22.584 42.519 22.36C42.231 22.1253 41.8417 22.008 41.351 22.008C40.871 22.008 40.4977 22.1093 40.231 22.312C39.975 22.5147 39.847 22.7813 39.847 23.112C39.847 23.432 40.0123 23.6827 40.343 23.864C40.6843 24.0453 41.143 24.2 41.719 24.328C42.2097 24.4347 42.6737 24.568 43.111 24.728C43.559 24.8773 43.9217 25.1067 44.199 25.416C44.487 25.7147 44.631 26.152 44.631 26.728C44.6417 27.4427 44.3697 28.0347 43.815 28.504C43.271 28.9627 42.5297 29.192 41.591 29.192ZM47.391 19.304C47.1243 19.304 46.9003 19.2187 46.719 19.048C46.5483 18.8667 46.463 18.6427 46.463 18.376C46.463 18.12 46.5483 17.9067 46.719 17.736C46.9003 17.5653 47.1243 17.48 47.391 17.48C47.647 17.48 47.8657 17.5653 48.047 17.736C48.2283 17.9067 48.319 18.12 48.319 18.376C48.319 18.6427 48.2283 18.8667 48.047 19.048C47.8657 19.2187 47.647 19.304 47.391 19.304ZM46.719 29V21.064H48.063V29H46.719ZM54.0431 29.192C53.2965 29.192 52.6245 29.0213 52.0271 28.68C51.4298 28.3387 50.9551 27.8587 50.6031 27.24C50.2618 26.6107 50.0911 25.8747 50.0911 25.032C50.0911 24.1893 50.2671 23.4587 50.6191 22.84C50.9711 22.2107 51.4458 21.7253 52.0431 21.384C52.6511 21.0427 53.3285 20.872 54.0751 20.872C54.8218 20.872 55.4938 21.0427 56.0911 21.384C56.6885 21.7253 57.1578 22.2107 57.4991 22.84C57.8511 23.4587 58.0271 24.1893 58.0271 25.032C58.0271 25.8747 57.8511 26.6107 57.4991 27.24C57.1471 27.8587 56.6671 28.3387 56.0591 28.68C55.4618 29.0213 54.7898 29.192 54.0431 29.192ZM54.0431 28.04C54.5018 28.04 54.9285 27.928 55.3231 27.704C55.7178 27.48 56.0378 27.144 56.2831 26.696C56.5285 26.248 56.6511 25.6933 56.6511 25.032C56.6511 24.3707 56.5285 23.816 56.2831 23.368C56.0485 22.92 55.7338 22.584 55.3391 22.36C54.9445 22.136 54.5231 22.024 54.0751 22.024C53.6165 22.024 53.1898 22.136 52.7951 22.36C52.4005 22.584 52.0805 22.92 51.8351 23.368C51.5898 23.816 51.4671 24.3707 51.4671 25.032C51.4671 25.6933 51.5898 26.248 51.8351 26.696C52.0805 27.144 52.3951 27.48 52.7791 27.704C53.1738 27.928 53.5951 28.04 54.0431 28.04ZM59.9199 29V21.064H61.1359L61.2159 22.488C61.4719 21.9867 61.8399 21.592 62.3199 21.304C62.7999 21.016 63.3439 20.872 63.9519 20.872C64.8905 20.872 65.6372 21.16 66.1919 21.736C66.7572 22.3013 67.0399 23.176 67.0399 24.36V29H65.6959V24.504C65.6959 22.8507 65.0132 22.024 63.6479 22.024C62.9652 22.024 62.3945 22.2747 61.9359 22.776C61.4879 23.2667 61.2639 23.9707 61.2639 24.888V29H59.9199Z" fill="white" fill-opacity="0.87"/>
<line x1="76.5" y1="16" x2="76.5" y2="32" stroke="white" stroke-opacity="0.2"/>
<path d="M90.9509 21.9538C91.1747 21.9527 91.3975 21.9267 91.6155 21.8764C91.49 21.6895 91.3474 21.5148 91.1896 21.3547L91.0792 21.2433C90.9936 21.1541 90.8815 21.0956 90.7599 21.0768C90.3921 21.0254 90.0457 20.8719 89.7594 20.6333C89.4732 20.3948 89.2583 20.0807 89.1389 19.7261C89.0194 19.3715 89.0001 18.9904 89.0831 18.6253C89.166 18.2603 89.3481 17.9257 89.6086 17.659C89.8693 17.3923 90.1983 17.2039 90.5591 17.1149C90.9198 17.0259 91.2979 17.0399 91.6512 17.1552C92.0044 17.2705 92.319 17.4826 92.5596 17.7678C92.8003 18.053 92.9575 18.4001 93.0139 18.7702C93.0313 18.9009 93.089 19.0228 93.1788 19.1186L93.2042 19.1441C93.3926 19.3342 93.6019 19.502 93.8281 19.6441C93.878 19.4255 93.9038 19.202 93.9049 18.9777C93.9053 18.3892 93.7328 17.8138 93.4089 17.3242C93.0851 16.8346 92.6246 16.4529 92.0857 16.2273C91.5468 16.0017 90.9536 15.9424 90.3812 16.0568C89.8088 16.1712 89.283 16.4542 88.8701 16.8701C88.4573 17.286 88.1759 17.816 88.0617 18.3931C87.9476 18.9702 88.0056 19.5685 88.2286 20.1124C88.4516 20.6562 88.8295 21.1211 89.3145 21.4484C89.7995 21.7756 90.3697 21.9504 90.9533 21.9507L90.9509 21.9538Z" fill="#FDB022"/>
<path fill-rule="evenodd" clip-rule="evenodd" d="M99.1743 28.4943L99.1997 28.5198C99.3682 28.6934 99.4775 28.9164 99.512 29.1568C99.5544 29.4311 99.6716 29.6881 99.8504 29.8992C100.029 30.1102 100.263 30.2669 100.525 30.3519C100.787 30.4368 101.067 30.4467 101.335 30.3803C101.602 30.3138 101.845 30.1738 102.038 29.9758C102.231 29.7779 102.366 29.5297 102.427 29.259C102.488 28.9883 102.474 28.7058 102.385 28.4431C102.296 28.1803 102.137 27.9475 101.925 27.7708C101.712 27.5941 101.455 27.4804 101.183 27.4424C100.949 27.4082 100.734 27.2975 100.569 27.1273L100.455 27.0159C100.24 26.7973 100.049 26.5551 99.8866 26.2937C99.4859 25.6479 99.2734 24.9014 99.2733 24.1396V23.8617C99.2747 23.0997 99.4874 22.3533 99.8873 21.7068C100.048 21.4458 100.239 21.2048 100.456 20.9885L100.54 20.9034C100.718 20.7195 100.95 20.5987 101.201 20.5589C101.472 20.5163 101.726 20.3988 101.935 20.2195C102.144 20.0402 102.3 19.806 102.385 19.5429C102.47 19.2798 102.482 18.9981 102.418 18.7289C102.354 18.4598 102.218 18.2136 102.024 18.0179C101.83 17.8221 101.586 17.6843 101.319 17.6197C101.052 17.5551 100.773 17.5662 100.512 17.6519C100.251 17.7375 100.019 17.8944 99.8408 18.105C99.6628 18.3156 99.5461 18.5718 99.5035 18.8453C99.4634 19.0988 99.3452 19.3333 99.1659 19.5156C98.9201 19.7652 98.6423 19.9807 98.3402 20.1564C98.1855 20.2499 98.0235 20.3304 97.8558 20.3972C97.3672 20.6022 96.8433 20.7075 96.314 20.7068H95.6755C94.6071 20.7047 93.5829 20.2762 92.8267 19.5148L92.8121 19.4854C92.6445 19.3128 92.5351 19.0912 92.4998 18.8522C92.4579 18.5779 92.3413 18.3207 92.1627 18.1094C91.9843 17.898 91.7511 17.7409 91.4892 17.6556C91.2273 17.5702 90.9471 17.56 90.6797 17.626C90.4124 17.6921 90.1685 17.8317 89.9755 18.0295C89.7823 18.2272 89.6475 18.4753 89.5861 18.7458C89.5245 19.0164 89.5389 19.2989 89.6275 19.5617C89.7161 19.8245 89.8754 20.0573 90.0875 20.2341C90.2997 20.4109 90.5565 20.5247 90.829 20.5628C91.0625 20.597 91.2782 20.7077 91.443 20.8779L91.5566 20.9924C91.7713 21.2104 91.962 21.4512 92.1252 21.7107C92.5261 22.3568 92.7389 23.1035 92.7392 23.8656C92.7389 24.4867 92.6179 25.1018 92.3832 25.676C92.299 25.8831 92.1996 26.0836 92.0862 26.2759C91.8848 26.6164 91.643 26.9309 91.3663 27.2125L91.344 27.2233C91.2271 27.342 91.0725 27.4154 90.9074 27.4308C90.6256 27.4559 90.3567 27.5615 90.1325 27.7354C89.9082 27.9092 89.7376 28.1439 89.6411 28.4121C89.5445 28.6802 89.5256 28.9705 89.587 29.2491C89.6482 29.5276 89.7871 29.7827 89.9871 29.9844C90.1871 30.1861 90.4399 30.3261 90.7161 30.3879C90.9922 30.4497 91.2801 30.4308 91.546 30.3333C91.8118 30.2359 92.0447 30.0639 92.2169 29.8377C92.3893 29.6115 92.4941 29.3404 92.519 29.0562C92.534 28.8873 92.6067 28.7289 92.7247 28.6081L92.8421 28.4896C93.0879 28.24 93.3657 28.0245 93.6678 27.8487C94.2817 27.4871 94.9799 27.2967 95.6908 27.2969H96.3294C97.0403 27.2967 97.7385 27.4871 98.3524 27.8487C98.6546 28.026 98.9321 28.2431 99.1774 28.4943H99.1743ZM96.0063 25.3006C95.7522 25.3006 95.5038 25.2246 95.2926 25.0823C95.0813 24.9399 94.9166 24.7375 94.8194 24.5008C94.7221 24.264 94.6967 24.0035 94.7462 23.7521C94.7958 23.5008 94.9182 23.2699 95.0978 23.0887C95.2775 22.9075 95.5064 22.7841 95.7557 22.7341C96.0048 22.6841 96.2631 22.7098 96.4979 22.8078C96.7327 22.9059 96.9333 23.072 97.0745 23.2851C97.2157 23.4981 97.291 23.7486 97.291 24.0049C97.291 24.1751 97.2577 24.3436 97.1932 24.5008C97.1286 24.658 97.034 24.8008 96.9148 24.9211C96.7954 25.0414 96.6538 25.1369 96.4979 25.202C96.3421 25.2671 96.175 25.3006 96.0063 25.3006Z" fill="#FDB022"/>
<path d="M99.0018 18.7548C98.9813 18.9013 98.9143 19.0371 98.8108 19.1418C98.6232 19.3347 98.4122 19.5029 98.183 19.6426C98.1331 19.424 98.1073 19.2005 98.1062 18.9762C98.1062 18.3882 98.2791 17.8134 98.6031 17.3244C98.9269 16.8355 99.3873 16.4545 99.9259 16.2295C100.465 16.0044 101.057 15.9456 101.629 16.0603C102.201 16.175 102.726 16.4581 103.138 16.8739C103.551 17.2897 103.831 17.8195 103.945 18.3962C104.059 18.9729 104.001 19.5707 103.777 20.1139C103.554 20.6572 103.176 21.1215 102.692 21.4482C102.207 21.7749 101.637 21.9492 101.054 21.9492C100.83 21.9481 100.607 21.9222 100.389 21.8718C100.514 21.6842 100.657 21.5094 100.815 21.3501L100.9 21.265C101.001 21.1613 101.132 21.0916 101.274 21.0653C101.639 21.0098 101.982 20.8533 102.265 20.6133C102.547 20.3733 102.758 20.0591 102.874 19.7056C102.99 19.352 103.007 18.9729 102.923 18.6104C102.838 18.2478 102.656 17.9159 102.396 17.6515C102.136 17.387 101.808 17.2004 101.449 17.1123C101.09 17.0243 100.714 17.0381 100.363 17.1524C100.011 17.2666 99.6982 17.4768 99.4579 17.7597C99.2178 18.0426 99.0598 18.387 99.0018 18.7548Z" fill="#FDB022"/>
<path d="M93.2011 28.8574L93.0836 28.9759C93.0504 29.0112 93.0296 29.0567 93.0245 29.1051C92.9913 29.4885 92.8503 29.8542 92.6178 30.1594C92.3855 30.4645 92.0716 30.6964 91.713 30.8277C91.3544 30.959 90.9661 30.9842 90.5937 30.9004C90.2214 30.8165 89.8805 30.6272 89.6113 30.3546C89.342 30.082 89.1556 29.7375 89.0739 29.3616C88.9923 28.9858 89.0188 28.5942 89.1504 28.233C89.2819 27.8719 89.513 27.5561 89.8166 27.323C90.12 27.0898 90.4832 26.949 90.8634 26.917C90.9068 26.9132 90.9472 26.8933 90.977 26.8612L90.9916 26.8465C91.2095 26.6266 91.4028 26.3831 91.5679 26.1205C91.3642 26.0756 91.1563 26.0533 90.9478 26.0539C90.3647 26.0539 89.7949 26.2283 89.3101 26.555C88.8254 26.8816 88.4475 27.346 88.2244 27.8892C88.0013 28.4325 87.9429 29.0303 88.0567 29.607C88.1704 30.1837 88.4511 30.7134 88.8634 31.1292C89.2757 31.545 89.8009 31.8282 90.3728 31.9429C90.9446 32.0576 91.5372 31.9987 92.0759 31.7737C92.6145 31.5487 93.0749 31.1676 93.3988 30.6787C93.7227 30.1898 93.8956 29.615 93.8956 29.027C93.8945 28.8026 93.8687 28.5791 93.8188 28.3605C93.5954 28.501 93.3893 28.6678 93.2049 28.8574H93.2011Z" fill="#FDB022"/>
<path d="M100.397 26.1251C100.615 26.0729 100.838 26.047 101.062 26.0477C101.643 26.0492 102.211 26.2241 102.694 26.5503C103.178 26.8773 103.555 27.3417 103.778 27.8848C104.001 28.4279 104.059 29.0253 103.945 29.6017C103.831 30.178 103.55 30.7074 103.138 31.123C102.726 31.5385 102.201 31.8216 101.63 31.9364C101.059 32.0513 100.466 31.9927 99.9278 31.7682C99.3893 31.5436 98.9288 31.1632 98.6046 30.6749C98.2804 30.1866 98.107 29.6123 98.1062 29.0246C98.1073 28.8003 98.1331 28.5767 98.183 28.3582C98.4092 28.5003 98.6186 28.668 98.8069 28.8582L98.8323 28.8837C98.9214 28.9799 98.9791 29.1016 98.9972 29.232C99.0647 29.6788 99.2794 30.0897 99.6067 30.3985C99.7909 30.5709 100.005 30.7076 100.238 30.8017C100.501 30.9061 100.783 30.9532 101.065 30.9398C101.348 30.9264 101.624 30.8529 101.876 30.7241C102.128 30.5953 102.35 30.4141 102.528 30.1924C102.705 29.9708 102.835 29.7137 102.907 29.4381C102.979 29.1625 102.992 28.8747 102.946 28.5935C102.9 28.3123 102.795 28.0442 102.639 27.8068C102.482 27.5693 102.278 27.368 102.039 27.2159C101.8 27.0639 101.532 26.9646 101.252 26.9247C101.13 26.9059 101.018 26.8474 100.933 26.7582L100.823 26.6468C100.665 26.4867 100.523 26.312 100.397 26.1251Z" fill="#FDB022"/>
<path d="M113.184 29V17.8H114.528V29H113.184ZM116.847 29V21.064H118.063L118.143 22.488C118.399 21.9867 118.767 21.592 119.247 21.304C119.727 21.016 120.271 20.872 120.879 20.872C121.817 20.872 122.564 21.16 123.119 21.736C123.684 22.3013 123.967 23.176 123.967 24.36V29H122.623V24.504C122.623 22.8507 121.94 22.024 120.575 22.024C119.892 22.024 119.321 22.2747 118.863 22.776C118.415 23.2667 118.191 23.9707 118.191 24.888V29H116.847ZM130.285 32.52V21.064H131.501L131.629 22.376C131.885 21.992 132.248 21.6453 132.717 21.336C133.197 21.0267 133.805 20.872 134.541 20.872C135.331 20.872 136.019 21.0533 136.605 21.416C137.192 21.7787 137.645 22.2747 137.965 22.904C138.296 23.5333 138.461 24.248 138.461 25.048C138.461 25.848 138.296 26.5627 137.965 27.192C137.645 27.8107 137.187 28.3013 136.589 28.664C136.003 29.016 135.315 29.192 134.525 29.192C133.875 29.192 133.293 29.0587 132.781 28.792C132.28 28.5253 131.896 28.152 131.629 27.672V32.52H130.285ZM134.381 28.024C134.915 28.024 135.384 27.9013 135.789 27.656C136.195 27.4 136.515 27.048 136.749 26.6C136.984 26.152 137.101 25.6293 137.101 25.032C137.101 24.4347 136.984 23.912 136.749 23.464C136.515 23.016 136.195 22.6693 135.789 22.424C135.384 22.168 134.915 22.04 134.381 22.04C133.848 22.04 133.379 22.168 132.973 22.424C132.568 22.6693 132.248 23.016 132.013 23.464C131.779 23.912 131.661 24.4347 131.661 25.032C131.661 25.6293 131.779 26.152 132.013 26.6C132.248 27.048 132.568 27.4 132.973 27.656C133.379 27.9013 133.848 28.024 134.381 28.024ZM140.356 29V21.064H141.572L141.684 22.584C141.93 22.0613 142.303 21.6453 142.804 21.336C143.306 21.0267 143.924 20.872 144.66 20.872V22.28H144.292C143.823 22.28 143.391 22.3653 142.996 22.536C142.602 22.696 142.287 22.9733 142.052 23.368C141.818 23.7627 141.7 24.3067 141.7 25V29H140.356ZM149.512 29.192C148.765 29.192 148.093 29.0213 147.496 28.68C146.899 28.3387 146.424 27.8587 146.072 27.24C145.731 26.6107 145.56 25.8747 145.56 25.032C145.56 24.1893 145.736 23.4587 146.088 22.84C146.44 22.2107 146.915 21.7253 147.512 21.384C148.12 21.0427 148.797 20.872 149.544 20.872C150.291 20.872 150.963 21.0427 151.56 21.384C152.157 21.7253 152.627 22.2107 152.968 22.84C153.32 23.4587 153.496 24.1893 153.496 25.032C153.496 25.8747 153.32 26.6107 152.968 27.24C152.616 27.8587 152.136 28.3387 151.528 28.68C150.931 29.0213 150.259 29.192 149.512 29.192ZM149.512 28.04C149.971 28.04 150.397 27.928 150.792 27.704C151.187 27.48 151.507 27.144 151.752 26.696C151.997 26.248 152.12 25.6933 152.12 25.032C152.12 24.3707 151.997 23.816 151.752 23.368C151.517 22.92 151.203 22.584 150.808 22.36C150.413 22.136 149.992 22.024 149.544 22.024C149.085 22.024 148.659 22.136 148.264 22.36C147.869 22.584 147.549 22.92 147.304 23.368C147.059 23.816 146.936 24.3707 146.936 25.032C146.936 25.6933 147.059 26.248 147.304 26.696C147.549 27.144 147.864 27.48 148.248 27.704C148.643 27.928 149.064 28.04 149.512 28.04ZM158.181 26.504C157.733 26.504 157.322 26.4453 156.949 26.328L156.149 27.08C156.266 27.1653 156.41 27.24 156.581 27.304C156.762 27.3573 157.018 27.4107 157.349 27.464C157.68 27.5067 158.144 27.5547 158.741 27.608C159.808 27.6827 160.57 27.928 161.029 28.344C161.488 28.76 161.717 29.304 161.717 29.976C161.717 30.4347 161.589 30.872 161.333 31.288C161.088 31.704 160.704 32.0453 160.181 32.312C159.669 32.5787 159.008 32.712 158.197 32.712C157.482 32.712 156.848 32.616 156.293 32.424C155.738 32.2427 155.306 31.96 154.997 31.576C154.688 31.2027 154.533 30.728 154.533 30.152C154.533 29.8533 154.613 29.528 154.773 29.176C154.933 28.8347 155.232 28.5093 155.669 28.2C155.434 28.104 155.232 28.0027 155.061 27.896C154.901 27.7787 154.752 27.6507 154.613 27.512V27.144L155.973 25.8C155.344 25.2667 155.029 24.5627 155.029 23.688C155.029 23.1653 155.152 22.6907 155.397 22.264C155.642 21.8373 156 21.5013 156.469 21.256C156.938 21 157.509 20.872 158.181 20.872C158.64 20.872 159.056 20.936 159.429 21.064H162.357V22.072L160.869 22.136C161.178 22.584 161.333 23.1013 161.333 23.688C161.333 24.2107 161.205 24.6853 160.949 25.112C160.704 25.5387 160.346 25.88 159.877 26.136C159.418 26.3813 158.853 26.504 158.181 26.504ZM158.181 25.4C158.746 25.4 159.194 25.256 159.525 24.968C159.866 24.6693 160.037 24.2427 160.037 23.688C160.037 23.144 159.866 22.728 159.525 22.44C159.194 22.1413 158.746 21.992 158.181 21.992C157.605 21.992 157.146 22.1413 156.805 22.44C156.474 22.728 156.309 23.144 156.309 23.688C156.309 24.2427 156.474 24.6693 156.805 24.968C157.146 25.256 157.605 25.4 158.181 25.4ZM155.845 30.024C155.845 30.5573 156.069 30.952 156.517 31.208C156.965 31.4747 157.525 31.608 158.197 31.608C158.858 31.608 159.386 31.464 159.781 31.176C160.186 30.888 160.389 30.504 160.389 30.024C160.389 29.6827 160.25 29.384 159.973 29.128C159.696 28.8827 159.184 28.7387 158.437 28.696C157.85 28.6533 157.344 28.6 156.917 28.536C156.48 28.7707 156.192 29.0213 156.053 29.288C155.914 29.5653 155.845 29.8107 155.845 30.024ZM163.897 29V21.064H165.113L165.225 22.584C165.47 22.0613 165.844 21.6453 166.345 21.336C166.846 21.0267 167.465 20.872 168.201 20.872V22.28H167.833C167.364 22.28 166.932 22.3653 166.537 22.536C166.142 22.696 165.828 22.9733 165.593 23.368C165.358 23.7627 165.241 24.3067 165.241 25V29H163.897ZM173.005 29.192C172.247 29.192 171.575 29.0213 170.989 28.68C170.402 28.328 169.938 27.8427 169.597 27.224C169.266 26.6053 169.101 25.8747 169.101 25.032C169.101 24.2 169.266 23.4747 169.597 22.856C169.927 22.2267 170.386 21.7413 170.973 21.4C171.57 21.048 172.258 20.872 173.037 20.872C173.805 20.872 174.466 21.048 175.021 21.4C175.586 21.7413 176.018 22.1947 176.317 22.76C176.615 23.3253 176.765 23.9333 176.765 24.584C176.765 24.7013 176.759 24.8187 176.749 24.936C176.749 25.0533 176.749 25.1867 176.749 25.336H170.429C170.461 25.944 170.599 26.4507 170.845 26.856C171.101 27.2507 171.415 27.5493 171.789 27.752C172.173 27.9547 172.578 28.056 173.005 28.056C173.559 28.056 174.023 27.928 174.397 27.672C174.77 27.416 175.042 27.0693 175.213 26.632H176.541C176.327 27.368 175.917 27.9813 175.309 28.472C174.711 28.952 173.943 29.192 173.005 29.192ZM173.005 22.008C172.365 22.008 171.794 22.2053 171.293 22.6C170.802 22.984 170.519 23.5493 170.445 24.296H175.437C175.405 23.5813 175.159 23.0213 174.701 22.616C174.242 22.2107 173.677 22.008 173.005 22.008ZM181.61 29.192C180.661 29.192 179.871 28.952 179.242 28.472C178.613 27.992 178.245 27.3413 178.138 26.52H179.514C179.599 26.936 179.818 27.2987 180.17 27.608C180.533 27.9067 181.018 28.056 181.626 28.056C182.191 28.056 182.607 27.9387 182.874 27.704C183.141 27.4587 183.274 27.1707 183.274 26.84C183.274 26.36 183.098 26.04 182.746 25.88C182.405 25.72 181.919 25.576 181.29 25.448C180.863 25.3627 180.437 25.24 180.01 25.08C179.583 24.92 179.226 24.696 178.938 24.408C178.65 24.1093 178.506 23.72 178.506 23.24C178.506 22.5467 178.762 21.9813 179.274 21.544C179.797 21.096 180.501 20.872 181.386 20.872C182.229 20.872 182.917 21.0853 183.45 21.512C183.994 21.928 184.309 22.5253 184.394 23.304H183.066C183.013 22.8987 182.837 22.584 182.538 22.36C182.25 22.1253 181.861 22.008 181.37 22.008C180.89 22.008 180.517 22.1093 180.25 22.312C179.994 22.5147 179.866 22.7813 179.866 23.112C179.866 23.432 180.031 23.6827 180.362 23.864C180.703 24.0453 181.162 24.2 181.738 24.328C182.229 24.4347 182.693 24.568 183.13 24.728C183.578 24.8773 183.941 25.1067 184.218 25.416C184.506 25.7147 184.65 26.152 184.65 26.728C184.661 27.4427 184.389 28.0347 183.834 28.504C183.29 28.9627 182.549 29.192 181.61 29.192ZM189.634 29.192C188.685 29.192 187.895 28.952 187.266 28.472C186.637 27.992 186.269 27.3413 186.162 26.52H187.538C187.623 26.936 187.842 27.2987 188.194 27.608C188.557 27.9067 189.042 28.056 189.65 28.056C190.215 28.056 190.631 27.9387 190.898 27.704C191.165 27.4587 191.298 27.1707 191.298 26.84C191.298 26.36 191.122 26.04 190.77 25.88C190.429 25.72 189.943 25.576 189.314 25.448C188.887 25.3627 188.461 25.24 188.034 25.08C187.607 24.92 187.25 24.696 186.962 24.408C186.674 24.1093 186.53 23.72 186.53 23.24C186.53 22.5467 186.786 21.9813 187.298 21.544C187.821 21.096 188.525 20.872 189.41 20.872C190.253 20.872 190.941 21.0853 191.474 21.512C192.018 21.928 192.333 22.5253 192.418 23.304H191.09C191.037 22.8987 190.861 22.584 190.562 22.36C190.274 22.1253 189.885 22.008 189.394 22.008C188.914 22.008 188.541 22.1093 188.274 22.312C188.018 22.5147 187.89 22.7813 187.89 23.112C187.89 23.432 188.055 23.6827 188.386 23.864C188.727 24.0453 189.186 24.2 189.762 24.328C190.253 24.4347 190.717 24.568 191.154 24.728C191.602 24.8773 191.965 25.1067 192.242 25.416C192.53 25.7147 192.674 26.152 192.674 26.728C192.685 27.4427 192.413 28.0347 191.858 28.504C191.314 28.9627 190.573 29.192 189.634 29.192Z" fill="white" fill-opacity="0.6"/>
</svg>
